<svg xmlns="http://www.w3.org/2000/svg" width="194" height="189" fill="none"><g clip-path="url(#a)"><path fill="#222" d="M108.967 188.514c46.155 0 83.572-3.921 83.572-8.757 0-4.837-37.417-8.757-83.572-8.757-46.156 0-83.572 3.92-83.572 8.757 0 4.836 37.416 8.757 83.572 8.757Z" opacity=".1"/><path fill="#F29BA5" d="M135.669 116.633c21.453-21.357 21.453-55.983 0-77.34-21.453-21.357-56.236-21.357-77.689 0-21.453 21.357-21.453 55.983 0 77.34 21.453 21.357 56.236 21.357 77.689 0Z"/><path fill="#F29BA5" d="M57.79 83.504C46.32 72.361 4.835 63.523.9 86.868c-1.629 9.67 7.715 14.515 16.171 13.657 4.578-.465 14.3-5.817 7.452-10.881-12.734-9.418-29.077 28.298-2.815 24.9 3.269-.423 21.699-5.71 14.284-12.06-6.533-5.594-15.637 5.589-17.5 10.576-3.223 8.625.005 20.652 11.452 17.155 6.194-1.891 11.158-8.258 15.148-12.979a83.183 83.183 0 0 0 13.183-20.939c.413-.96-.883-1.796-1.45-.843a154.52 154.52 0 0 1-12.053 18.022 99.252 99.252 0 0 1-6.505 7.326c-1.131 1.153-2.274 2.348-3.511 3.389-2.312 1.944-7.443 4.93-10.578 3.703-2.315-.905-4.358-6.298-4.394-8.692a17.019 17.019 0 0 1 1.884-6.978 18.051 18.051 0 0 1 3.137-4.557c.99-.999 6.114-4.603 7.412-3.575 2.486 1.969-.889 4.389-2.018 5.247-1.69 1.286-4.995 1.957-7.125 2.4-6.478 1.347-12.686-.467-12.863-7.905a12.187 12.187 0 0 1 1.718-7.196 6.485 6.485 0 0 1 2.331-2.62c1.478-2.6 7.035-4.644 8.239-1.518 2.883 3.364-2.138 5.18-5.615 5.51a15.31 15.31 0 0 1-6.364-.354c-13.973-5.007-5.109-19.097 5.026-21.702 7.225-1.857 15.54-1.225 22.725.397 6.924 1.562 12.745 5.08 19.246 7.619.268.105.46-.282.272-.466Zm65.756-39.506a87.588 87.588 0 0 1 14.07-26.298c1.667-2.033 3.82-4.778 6.394-5.764 14.028-5.376 11.652 7.507 8.687 12.208a13.59 13.59 0 0 1-2.915 3.293c-.508-.177-3.627 2.239-4.136 2.063-.416-.144 1.779-2.88 1.363-3.023a8.984 8.984 0 0 1 7.759-1.136c6.593-.541 7.861 3.768 3.803 12.927C158 39 158 41 153 41.5c-.619-.019 1-3 1.814-3.345a11.865 11.865 0 0 1 8.155-1.498 9.948 9.948 0 0 1 5.745 1.683l1.596 9.19c-1.302 2.999-8.657 5.685-11.399 7.066-8.307 4.186-17.717 6.592-25.722 11.243a.559.559 0 0 0-.051.918.563.563 0 0 0 .333.12c11.155-.781 23.033-7.41 32.453-12.993 5.181-3.07 11.572-8.293 7.131-14.719-3.856-5.58-16.003-7.175-20.828-1.957-2.537 2.743-1.678 6.613 2.566 6.19 6.496-.646 11.361-10.575 8.451-16.067-3.391-6.398-13.911-6.478-18.903-1.914-2.445 2.236-3.333 6.908 1.305 6.953 6.321.06 12.227-9.947 11.817-15.484-.669-9.038-10.125-9.954-16.397-5.644-9.856 6.773-14.929 21.676-18.195 32.57-.13.434.526.604.675.186Z"/><path fill="#F18595" d="M45.02 59.765a54.58 54.58 0 0 0-2.866 12.84c10.505 22.438 25.443 44.852 44.66 59.134a54.841 54.841 0 0 0 22.815-.604c-24.426-23.912-41.732-54.108-58.22-83.95a54.66 54.66 0 0 0-6.388 12.58ZM68.006 31.42c20.068 31.38 31.852 66.577 57.243 93.325a54.886 54.886 0 0 0 11.853-9.6C119.196 85.39 101.705 54.852 85.1 24.548a55.389 55.389 0 0 0-17.094 6.872Zm78.628 69.588a54.906 54.906 0 0 0 1.994-4.847 54.464 54.464 0 0 0-2.247-41.797 54.716 54.716 0 0 0-12.844-17.083 54.992 54.992 0 0 0-18.433-10.89c-1.661-.583-3.332-1.051-5.007-1.467 11.377 25.954 22.275 52.074 36.537 76.084Z"/><path fill="#F29BA5" d="M91.286 127.463c-4.92-.549-7.32 9.436-8.74 12.934-3.003 7.396-8.033 17.543-6.853 25.58.116.791 1.166.707 1.534.2 3.46-4.766 4.093-11.525 5.938-17.094 1.007-3.041 2.126-6.038 3.222-9.049 1.184-3.251 2.523-9.914 5.048-12.215a.21.21 0 0 0 .041-.226.209.209 0 0 0-.19-.13Z"/><path fill="#F29BA5" d="M76.464 164.136a36.826 36.826 0 0 1 16.295 10.183 6.164 6.164 0 0 1 1.547 2.369 2.359 2.359 0 0 1-.728 2.573 3.466 3.466 0 0 1-2.543.262 21.256 21.256 0 0 1-9.362-3.488 13.82 13.82 0 0 1-4.293-5.455 13.755 13.755 0 0 1-1.09-6.844"/><path fill="#F29BA5" d="M76.26 164.875a50.242 50.242 0 0 1 9.39 4.92 34.979 34.979 0 0 1 4.664 3.734c1.381 1.314 4.487 4.297.768 4.786-3.224.424-8.15-2.458-10.186-4.546-2.798-2.87-3.034-6.563-4.269-10.126a.357.357 0 0 0-.292-.246.353.353 0 0 0-.347.163c-2.057 4.115.565 9.328 3.616 12.257a17.286 17.286 0 0 0 6.732 3.829c1.947.631 5.133 1.735 7.165.917 4.561-1.838.568-6.734-1.505-8.708a33.562 33.562 0 0 0-15.328-8.457.772.772 0 0 0-.919.542.763.763 0 0 0 .51.935Zm37.698-40.76c2.715 17.31 4.468 32.581-.223 49.676a.908.908 0 0 0 .532 1.054.92.92 0 0 0 1.129-.356c8.962-15.231 3.974-34.821-.764-50.559a.348.348 0 0 0-.427-.231.348.348 0 0 0-.247.416Z"/><path fill="#F29BA5" d="M114.555 173.185a22.903 22.903 0 0 1 19.844-.975 4.169 4.169 0 0 1 2.624 2.347 3.014 3.014 0 0 1-1.565 3.203 7.802 7.802 0 0 1-3.715.821 41.152 41.152 0 0 1-9.482-.751c-2.996-.592-6.176-1.702-7.796-4.28"/><path fill="#F29BA5" d="M114.741 173.857a30.692 30.692 0 0 1 8.891-1.779c1.954-.115 7.635-.396 8.922 1.324l-.811 3.394c-.794.043-1.589.056-2.383.037a39.715 39.715 0 0 1-3.961-.223 18.595 18.595 0 0 1-10.143-3.848 1.126 1.126 0 0 0-1.868.585c-.055.26-.016.531.111.765 2.155 4.913 8.72 5.674 13.481 6.101 3.743.335 10.529.93 11.831-3.93 1.249-4.66-4.764-6.41-8.143-7.061a21.31 21.31 0 0 0-8.582-.012 21.245 21.245 0 0 0-7.884 3.374c-.617.413-.249 1.563.539 1.273Z"/><path fill="#282827" d="M70.93 66.062c3.745-3.654 8.154-5.996 12.377-8.957a.77.77 0 0 0-.593-1.4c-5.313 1.065-9.714 5.37-12.553 9.766-.305.473.378.973.77.59Zm35.62-13.038c2.218.377 4.327 1.857 6.352 2.8a52.94 52.94 0 0 0 5.582 2.494c.498.167.772-.473.476-.814a17.06 17.06 0 0 0-5.529-4.113 17.132 17.132 0 0 0-6.713-1.597c-.673.025-.899 1.106-.168 1.23ZM94.908 89.026a14.5 14.5 0 0 0 .81 7.7c.836 1.76 2.429 3.741 4.6 3.223 5-1.192 4.35-10.598 2.48-13.789a.632.632 0 0 0-.704-.276.633.633 0 0 0-.469.593c-.013 1.942.508 3.827.556 5.773.025.78-.017 1.559-.125 2.331-.263 1.788-.378 2.382-2.314 2.716-1.793.31-1.92.107-2.642-1.374a12.248 12.248 0 0 1-.808-2.602 43.034 43.034 0 0 1-.834-4.369c-.046-.33-.526-.216-.55.074Z"/><path fill="#FED076" d="M84.639 95.08a10.01 10.01 0 0 1-1.061 5.737 10.071 10.071 0 0 1-4.085 4.184 10.128 10.128 0 0 1-11.177-.935 10.052 10.052 0 0 1-3.325-4.804 10.007 10.007 0 0 1-.084-5.834 10.046 10.046 0 0 1 3.186-4.897 10.137 10.137 0 0 1 12.807-.183 10.06 10.06 0 0 1 2.542 2.996 10.017 10.017 0 0 1 1.197 3.735Zm48.385-7.785a10.01 10.01 0 0 1-1.061 5.738 10.065 10.065 0 0 1-4.084 4.184 10.131 10.131 0 0 1-11.177-.935 10.05 10.05 0 0 1-3.325-4.804 10.006 10.006 0 0 1-.084-5.834 10.044 10.044 0 0 1 3.186-4.897 10.128 10.128 0 0 1 12.806-.183 10.034 10.034 0 0 1 3.739 6.73Z"/><path fill="#fff" d="M95.298 75.722a11.34 11.34 0 0 1-1.202 6.5c-1.037 2-2.647 3.65-4.627 4.74a11.478 11.478 0 0 1-12.66-1.06 11.382 11.382 0 0 1-3.767-5.442 11.335 11.335 0 0 1-.095-6.608 11.379 11.379 0 0 1 3.609-5.547 11.482 11.482 0 0 1 14.507-.207 11.396 11.396 0 0 1 2.879 3.393 11.345 11.345 0 0 1 1.356 4.231Z"/><path fill="#282827" d="M82.652 65.689a11.47 11.47 0 0 0-3.366.91A11.335 11.335 0 0 0 80.69 79.9a11.44 11.44 0 0 0 6.116 3.517c2.36.5 4.819.243 7.024-.733a11.328 11.328 0 0 0-.326-11.928 11.404 11.404 0 0 0-4.704-4.065 11.465 11.465 0 0 0-6.147-1.002Z"/><path fill="#fff" d="M109.57 62.661a11.459 11.459 0 0 0-6.096 2.616 11.374 11.374 0 0 0-3.61 5.547 11.335 11.335 0 0 0 .096 6.609 11.378 11.378 0 0 0 3.767 5.441 11.476 11.476 0 0 0 12.66 1.06 11.4 11.4 0 0 0 4.627-4.74 11.341 11.341 0 0 0-3.034-14.123 11.47 11.47 0 0 0-8.41-2.41Z"/><path fill="#282827" d="M122.216 72.695a11.315 11.315 0 0 1-.141 3.47 11.474 11.474 0 0 1-13.337 1.606 11.395 11.395 0 0 1-4.808-5.15 11.334 11.334 0 0 1-.849-6.98 11.437 11.437 0 0 1 5.542-2.832 11.47 11.47 0 0 1 6.21.486 11.418 11.418 0 0 1 5.03 3.658 11.34 11.34 0 0 1 2.353 5.742Z"/><path fill="#6CA08A" d="M187.042 152.568h-43.25a2.918 2.918 0 0 1-1.967-.759 2.9 2.9 0 0 1-.937-1.881l-4.024-44.113a2.905 2.905 0 0 1 2.904-3.166h51.298a2.927 2.927 0 0 1 2.153.945 2.889 2.889 0 0 1 .751 2.221l-4.023 44.113a2.899 2.899 0 0 1-.938 1.881 2.916 2.916 0 0 1-1.967.759Z"/><path fill="#9DD3CC" d="M164.503 151.462a222.969 222.969 0 0 0-1.581-25.187c-.815-8.88.001-17.115.072-25.932a.635.635 0 0 0-1.173-.317c-4.306 7.175-3.251 16.878-2.498 24.875a174.732 174.732 0 0 0 4.081 26.709.565.565 0 0 0 .955.209.557.557 0 0 0 .144-.357Z"/><path fill="#9DD3CC" d="M137.908 128.467c8.458 2.663 18.612 1.296 27.357.947a222.266 222.266 0 0 0 27.627-2.097c1.489-.248 1.123-2.635-.353-2.598-9.569.235-19.137 1.453-28.712 1.87-8.405.366-17.813-.652-25.919 1.744a.072.072 0 0 0-.036.025.073.073 0 0 0-.014.042.07.07 0 0 0 .05.067Zm24.827-26.89c-1.928-1.722-5.307-4.688-4.934-7.581l-.389.935.197-.194-.94.387a6.792 6.792 0 0 1 3.547 2.665 7.952 7.952 0 0 1 1.596 4.229 1.35 1.35 0 0 0 .975 1.275c.233.052.474.052.707 0a1.33 1.33 0 0 0 .975-1.275 10.842 10.842 0 0 0-2.571-6.362c-1.1-1.284-3.552-3.472-5.405-3.154-2.355.404-1.138 3.85-.483 5.138 1.242 2.44 3.597 3.723 5.962 4.922.606.307 1.322-.485.763-.985Z"/><path fill="#9DD3CC" d="M162.807 102.161a25.031 25.031 0 0 1 5.174-4.829 13.415 13.415 0 0 1 3.287-1.504c.641-.198 3.454-1.186 3.907-.739 1.235 1.221-3.774 4.876-4.592 5.307-2.629 1.389-5.463 1.014-8.102 2.029-.351.135-.535.693-.117.891 3.153 1.492 7.905-.098 10.674-1.886 2.016-1.302 5.835-4.666 4.504-7.477-1.32-2.789-6.363-.977-8.332.028a11.286 11.286 0 0 0-4.257 3.261 11.21 11.21 0 0 0-2.263 4.851c-.01.061.066.127.117.068Z"/><path fill="#EB667F" d="M80.931 116.06c2.956 8.51 16.157 11.299 23.798 13.64 11.017 3.376 23.072 6.696 33.866 1.118.835-.432.206-1.521-.593-1.4-10.687 1.618-20.753.058-31.008-3.07-8.017-2.445-19.503-4.203-25.245-10.763a.492.492 0 0 0-.588-.068.489.489 0 0 0-.23.543Z"/><path fill="#EB667F" d="M137.729 129.451a21.424 21.424 0 0 1 9.724-7.396 6.873 6.873 0 0 1 4.035-.507 2.969 2.969 0 0 1 1.711 1.05c.43.538.659 1.207.646 1.895a3.917 3.917 0 0 1-1.69 2.413 15.415 15.415 0 0 1-5.849 2.814 15.461 15.461 0 0 1-6.495.16"/><path fill="#EB667F" d="M139.363 129.635a21.414 21.414 0 0 1 5.246-4.296c1.126-.636 9.012-4.075 5.859.67-1.063 1.6-4.899 2.266-6.648 2.482a8.54 8.54 0 0 0-4.256.969.494.494 0 0 0-.176.667c3.507 4.636 17.298-.6 16.171-6.669-.643-3.467-4.658-4.382-7.62-3.543a21.865 21.865 0 0 0-10.59 7.716c-1.096 1.396.748 3.387 2.014 2.004Z"/></g><defs><clipPath id="a"><path fill="#fff" d="M.715.623h193.268v187.89H.715z"/></clipPath></defs></svg>