<svg xmlns="http://www.w3.org/2000/svg" width="49" height="49" fill="none"><g fill="#FFFFF6" clip-path="url(#a)"><path d="M15.143 40.55a42.366 42.366 0 0 0-2.952 5.354 3.86 3.86 0 0 0-.44 1.46 1.402 1.402 0 0 0 .654 1.302 1.461 1.461 0 0 0 1.332-.088 4.469 4.469 0 0 0 1.574-1.73 41.124 41.124 0 0 0 3.431-6.985c.201-.426.289-.897.253-1.366-.262-1.63-1.891-.736-2.472.055-.479.653-.939 1.32-1.38 1.999ZM2.426 36.818c.208.114.437.183.672.204a3.798 3.798 0 0 0 1.843-.452 24.385 24.385 0 0 0 6.715-4.53 2.4 2.4 0 0 0 .857-1.313c.452-3.26-8.72 2.731-9.578 3.357-.614.448-1.297 1.05-1.202 1.805a1.271 1.271 0 0 0 .693.929ZM.562 18.254c.52.538 1.137.972 1.82 1.277a24.85 24.85 0 0 0 7.337 2.364 1.574 1.574 0 0 0 1.365-.225c2.013-1.984-7.847-5.35-9.019-5.688a1.864 1.864 0 0 0-1.713.091 1.46 1.46 0 0 0-.028 1.868c.073.11.152.214.238.313ZM33.429 41.37c-.226-.571-1.616-3.94-2.076-5.057-.359-.87-2.259-3.019-2.866-1.052-.091.419-.075.855.049 1.266a47.383 47.383 0 0 0 3.799 10.92c.129.334.35.624.636.838a1.31 1.31 0 0 0 1.732-.71 3.33 3.33 0 0 0 .042-2.077 26.747 26.747 0 0 0-1.316-4.127Zm12.468-14.354c-2.664-1.007-7.635-2.62-8.076-.802-.179.736.644 1.292 1.342 1.583a39.778 39.778 0 0 0 7.96 2.373c.59.11 1.304.165 1.683-.3a1.172 1.172 0 0 0-.109-1.432 3.202 3.202 0 0 0-1.299-.826c-.256-.107-.798-.33-1.501-.596ZM36.439 15.46a1.52 1.52 0 0 0-.652.893 1.081 1.081 0 0 0 .895 1.09 2.87 2.87 0 0 0 1.518-.197 42.679 42.679 0 0 0 7.614-3.732 2.867 2.867 0 0 0 1.459-1.403c1.229-3.782-9.865 2.576-10.807 3.327l-.027.022Zm-8.629-3.492c.645.101 1.2-.664 1.484-1.315a75.27 75.27 0 0 0 3.134-8.575c.154-.398.206-.828.151-1.25-.398-1.862-2.188-.12-2.554.72a51.415 51.415 0 0 0-2.85 8.468c-.168.696-.203 1.639.461 1.903a.81.81 0 0 0 .174.049ZM15.044 8.106a37.012 37.012 0 0 0 1.636 3.485c.254.476.605 1.004 1.142 1.043a1.127 1.127 0 0 0 1.07-.925c.078-.51.03-1.03-.14-1.517a49.4 49.4 0 0 0-2.717-7.622c-.45-.998-2.031-2.29-2.575-.499a3.064 3.064 0 0 0 .115 1.667 37.04 37.04 0 0 0 1.47 4.368Zm5.833 14.469a3.36 3.36 0 0 1 3.596-2.813 3.716 3.716 0 0 1 3.342 2.697c.14.49.176 1.005.108 1.51a3.806 3.806 0 0 1-4.241 2.972 3.54 3.54 0 0 1-2.805-4.366Z"/></g><defs><clipPath id="a"><path fill="#fff" d="M0 0h49v48.786H0z"/></clipPath></defs></svg>