<svg xmlns="http://www.w3.org/2000/svg" width="263" height="176" fill="none"><g clip-path="url(#a)"><path fill="#222" d="M0 165.691c0 3.305 53.427 5.984 119.332 5.984s119.332-2.679 119.332-5.984-53.427-5.984-119.332-5.984S0 162.386 0 165.691Z" opacity=".1"/><path fill="#54596A" d="M97.975 157.814c36.003-4.751 84.309-16.201 89.783-58.845.05-.39.642-.56.747-.102 3.733 16.243-7.176 31.82-19.516 41.2-16.284 12.377-38.461 17.675-58.188 21.276a280.128 280.128 0 0 1-95.154.552 308.806 308.806 0 0 1 2.28-4.835c26.586 2.995 53.226 4.294 80.048.754Z"/><path fill="#88C8C0" d="M151.815 91.203c-13.111-24.05-4.316-54.215 19.646-67.375 23.961-13.16 54.015-4.332 67.126 19.718 13.112 24.05 4.316 54.215-19.645 67.375-23.962 13.16-54.015 4.332-67.127-19.718Z"/><path fill="#88C8C0" d="m241.824 73.771-89.207-25.26a5.897 5.897 0 0 0-4.497.533 5.935 5.935 0 0 0-2.804 3.57l-4.712 16.764a5.956 5.956 0 0 0 .532 4.513 5.917 5.917 0 0 0 3.556 2.814l89.207 25.261a5.893 5.893 0 0 0 4.497-.534 5.932 5.932 0 0 0 2.803-3.569l4.713-16.764a5.96 5.96 0 0 0-.532-4.514 5.922 5.922 0 0 0-3.556-2.814Z"/><path fill="#71B6AA" d="M230.648 101.95c-11.605-.661-23.188-5.236-34.305-8.401-12.308-3.504-24.947-6.457-36.843-11.193a.613.613 0 0 1-.127-1.109.606.606 0 0 1 .45-.069c12.613 2.202 24.91 6.313 37.23 9.783 11.112 3.13 23.41 5.316 33.636 10.837a.082.082 0 0 1 .033.04.089.089 0 0 1 .003.051.085.085 0 0 1-.077.061Z"/><path fill="#D0EAE5" d="M240.848 64.744c-4.225-8.657-6.854-16.923-13.181-24.466-5.815-6.932-13.256-10.912-20.246-16.375-.887-.693.134-1.771.962-1.658 17.065 2.333 34.848 25.114 33.315 42.268-.037.41-.633.677-.85.231Zm-3.183 34.143c.756-3.59 1.831-7.07 2.562-10.667.636-3.126.717-6.676 2.101-9.547a.85.85 0 0 1 .723-.412.84.84 0 0 1 .722.412c2.766 6.334-1.221 15.85-5.726 20.437a.23.23 0 0 1-.382-.223Zm3.308-20.274c-12.207-.028-26.435-5.577-36.834-11.83a1.148 1.148 0 0 1-.449-1.421 1.143 1.143 0 0 1 1.328-.67c6.601 1.866 12.887 4.498 19.339 6.795 5.666 2.018 11.512 3.507 16.808 6.415a.39.39 0 0 1 .155.186.39.39 0 0 1-.12.443.383.383 0 0 1-.227.082Z" opacity=".6"/><path fill="#282827" d="M227.511 51.699a55.584 55.584 0 0 0-5.683-6.54c-1.918-1.912-4.117-3.449-6.045-5.346-.565-.556.008-1.708.814-1.403 5.554 2.1 9.541 7.433 11.833 12.75a.534.534 0 0 1-.595.772.533.533 0 0 1-.324-.233ZM191.55 31.353c-2.346.296-4.643.9-6.832 1.797a58.867 58.867 0 0 1-6.75 1.803c-.463.076-.972-.513-.517-.893a18.57 18.57 0 0 1 6.72-3.52 18.531 18.531 0 0 1 7.561-.536c.77.156.575 1.344-.182 1.349Zm6.208 40.947c.005 2.85-.737 5.65-2.154 8.12-1.224 1.814-3.358 3.815-5.664 2.748-5.036-2.328-2.728-12.18-.102-15.36.485-.587 1.24.072 1.144.669-.521 3.239-3.356 8.123-1.464 11.355 3.269 5.585 7.08-5.786 7.642-7.613.097-.315.627-.276.598.08Z"/><path fill="#71B6AA" d="M218.266 94.718c-6.061 0-10.975-4.932-10.975-11.016s4.914-11.016 10.975-11.016c6.062 0 10.976 4.932 10.976 11.016s-4.914 11.016-10.976 11.016Zm-61.103-30.97a11.055 11.055 0 0 0 .125 6.394 11.01 11.01 0 0 0 3.643 5.247 10.942 10.942 0 0 0 12.157.961 11 11 0 0 0 4.417-4.61 11.048 11.048 0 0 0-1.432-12.155 10.97 10.97 0 0 0-5.367-3.449 10.935 10.935 0 0 0-8.342.99 11.016 11.016 0 0 0-5.201 6.62Z"/><path fill="#282827" d="M201.025 53.125c-1.864 6.633.643 18.29 7.251 20.162 6.608 1.87 21.152-4.958 23.016-11.591 1.865-6.633-9.656-10.557-16.265-12.429-6.608-1.87-12.137-2.775-14.002 3.858Zm-6.293-1.782c-1.864 6.633-10.071 15.256-16.68 13.385-6.608-1.871-15.451-15.323-13.587-21.956 1.864-6.632 13.73-3.934 20.339-2.063 6.608 1.871 11.793 4.002 9.928 10.634Z"/><path fill="#282827" d="M202.761 61.503a48.443 48.443 0 0 1-7.926-2.667c-2.55-.855-5.217-1.23-7.468-2.748a.772.772 0 0 1 .181-1.39c3.066-.995 6.556.028 9.487 1.17 2.238.873 5.804 2.348 6.488 4.87.137.503-.312.829-.762.765Z"/><path fill="#54596A" d="M182.597 136.886a173.366 173.366 0 0 1 23.3 15.712c3.391 2.741 10.591 8.464 6.973 13.694-3.164 4.575-14.212 5.604-19.172 6.046-8.108.724-17.253-.285-24.526-4.118a1.113 1.113 0 0 1 .089-1.935 1.11 1.11 0 0 1 .76-.087c6.266 1.66 12.228 3.488 18.784 3.563 4.669.054 14.792-.111 18.807-3.379 8.105-6.594-6.929-15.009-11.139-18.162a253.644 253.644 0 0 0-14.572-10.14.691.691 0 0 1-.227-.934.687.687 0 0 1 .923-.26Z"/><path fill="#54596A" d="M171.621 167.528a14.406 14.406 0 0 0-13.405 1.78 5.792 5.792 0 0 0-2.556 3.515 1.283 1.283 0 0 0 .175 1.017c.216.221.504.358.812.385a8.36 8.36 0 0 0 4.446-.911 544.118 544.118 0 0 0 10.276-4.326"/><path fill="#54596A" d="M171.621 167.943c-2.468.154-4.593-.517-7.103.039-.943.209-6.601 1.943-6.656 3.517-.091 2.541 6.004-.925 7.057-1.374 2.137-.911 4.078-2.088 6.45-1.828.451.049.948.575.595 1.04-1.974 2.605-18.897 10.513-17.676 3.106 1.074-6.523 13.16-9.114 17.625-5.208.289.253.039.687-.292.708Zm11.59-31.776c-10.685 2.855-22.198 2.056-32.905-.345-7.554-1.694-19.326-3.97-22.76-12.042-.308-.724.56-1.624 1.19-.921 12.578 14.013 37.366 12.568 54.457 13.172a.072.072 0 0 1 .044.018c.012.011.02.026.023.042a.07.07 0 0 1-.011.047.066.066 0 0 1-.038.029Z"/><path fill="#54596A" d="M129.136 123.735a45.566 45.566 0 0 0-5.523-13.533 12.036 12.036 0 0 0 .899 8.048 25.625 25.625 0 0 0 4.768 6.693"/><path fill="#54596A" d="M129.069 123.754a69.507 69.507 0 0 0-5.992-13.238l1.133-.148c-1.2 5.581 1.925 10.208 5.508 14.136.539.589-.336 1.472-.876.88-3.912-4.288-7.126-9.308-5.827-15.347a.633.633 0 0 1 .518-.442.624.624 0 0 1 .615.293 36.697 36.697 0 0 1 5.054 13.829.068.068 0 0 1-.008.052.068.068 0 0 1-.041.031.065.065 0 0 1-.051-.006.072.072 0 0 1-.033-.04Z"/><path fill="#54596A" d="M129.047 124.462a24.722 24.722 0 0 1-6.647.812c-1.555-.022-3.432-.434-3.922-1.915-.62-1.875 1.562-3.484 3.49-3.882a7.516 7.516 0 0 1 4.593.324 4.336 4.336 0 0 1 2.64 3.591"/><path fill="#54596A" d="M129.102 124.662c-2.81 1.007-6.608 2.242-9.518.898a3.063 3.063 0 0 1-1.845-1.942 3.084 3.084 0 0 1 .378-2.656c2.769-4.259 11.038-2.843 11.497 2.43.04.461-.734.572-.812.11a4.32 4.32 0 0 0-1.586-2.612 4.289 4.289 0 0 0-2.913-.9c-1.383-.032-3.744.373-4.636 1.652-2.608 3.739 8.05 2.801 9.325 2.62a.205.205 0 0 1 .153.024.21.21 0 0 1 .077.278.208.208 0 0 1-.12.098Z"/></g><defs><clipPath id="a"><path fill="#fff" d="M262.328 0H0v175.532h262.328z"/></clipPath></defs></svg>