<svg xmlns="http://www.w3.org/2000/svg" width="163" height="171" fill="none"><g clip-path="url(#a)"><path fill="#fff" d="m142.304 170.96-22.222-131.2L0 72.11s9.78 44.928 57.149 33.25l-13.865 65.6h99.02Z"/><path fill="#FFACAD" d="M0 72.11s8.545 39.2 48.294 34.835A128.534 128.534 0 0 0 36.31 62.328L0 72.11Z"/><path fill="#E58F93" d="M16.329 80.055c.502 1.448.884 2.93 1.407 4.367a11.676 11.676 0 0 0 2.092 4.656 2.899 2.899 0 0 0 4.89-2.023 9.37 9.37 0 0 0-2.095-4.97 23.736 23.736 0 0 0-3.225-3.813 1.85 1.85 0 0 0-3.07 1.783Z"/><path fill="#282827" d="M75.624 55.116a18.375 18.375 0 0 0-.743 13.515c1.109 3.185 3.941 5.96 7.517 5.538 7.561-.892 10.808-15.128 5.09-19.599a.672.672 0 0 0-1.105.291c-1.191 4.265.901 11.045-3.171 14.236-4.989 3.909-6.531-11.334-6.767-13.76-.036-.38-.626-.666-.82-.221Z"/><path fill="#EA8888" d="M117.829 44.52c.376-4.075 2.065 4.386 4.896 7.344 7.749 8.098 16.642 17.67 27.392 20.87l6.07 34.55s-13.99-1.943-18.066-6.067c0 0 10.87 17.431 18.066 20.194l6.643 49.55h-20.526S116.56 58.266 117.829 44.519Z"/><path fill="#F9F8F2" d="M122.496 54.013s15.231-3.119 15.625-27.826a2.055 2.055 0 0 0-1.088-1.82 2.058 2.058 0 0 0-2.12.114l-27.584 18.714s.809 14.657 15.167 10.818Z"/><path fill="#FFACAD" d="M116.312 54.524a15.33 15.33 0 0 0 6.184-.511s12.096-2.493 15.002-20.535c-9.944 3.846-18.313 10.424-21.186 21.046Z"/><path fill="#FFD480" d="M112.568 79.245a13.17 13.17 0 0 1-2.226 7.325 13.2 13.2 0 0 1-5.926 4.856 13.227 13.227 0 0 1-14.392-2.858 13.166 13.166 0 0 1-2.863-14.369 13.19 13.19 0 0 1 4.864-5.917 13.22 13.22 0 0 1 16.675 1.64 13.18 13.18 0 0 1 3.868 9.323Z"/><path fill="#EDB4A9" d="M96.706 60.412a86.576 86.576 0 0 0-1.96 12.318c-.058 1.061 1.394 1.098 1.73.234a23.647 23.647 0 0 0 .797-12.552.295.295 0 0 0-.46-.152.295.295 0 0 0-.107.152Zm2.522 2.804c-.232 1.688-.425 3.476-.794 5.134a5.813 5.813 0 0 0-.04 4.058.663.663 0 0 0 .747.303c3.387-1.231 2.824-6.888 1.787-9.495-.275-.691-1.567-.967-1.7 0Z"/><path fill="#D37272" d="M119.889 61.522c4.494 11.163 12.841 26.022 27.196 24.026.571-.08.551-1.034 0-1.132-13.357-2.378-20.166-12.164-27.062-22.95-.042-.067-.166-.025-.134.056Zm11.014 47.691a69.697 69.697 0 0 0 23.549 28.281c.491.327 1.036-.403.623-.806-8.79-8.596-16.886-17.431-23.411-27.919a.441.441 0 0 0-.761.444Z"/><path fill="#AE8ECB" d="M107.329 43.195 77.011.961a2.307 2.307 0 0 0-4.122 1.86l8.646 47.323 25.794-6.949Z"/><path fill="#ACE8EA" d="M80.771 45.931c.34-2.585 1.48-5 3.26-6.907 1.999-1.835 4.82-2.93 6.99-4.57 2.526-1.909 6.53-4.56 5.964-8.084-.065-.407-.601-.46-.86-.227-2.414 2.18-4.084 4.693-6.818 6.61-2.18 1.528-4.811 2.521-6.848 4.237a7.21 7.21 0 0 0-2.091 8.994.222.222 0 0 0 .334.053.222.222 0 0 0 .069-.106Zm-2.943-13.104c.629-4.914 3.875-8.623 7.223-12.022 1.758-1.784 3.304-3.582 2.91-6.19a.591.591 0 0 0-1.133 0c-.7 4.201-4.628 6.223-6.915 9.543a13.33 13.33 0 0 0-2.232 8.67.074.074 0 0 0 .147 0Zm-1.887-15.75c.13-3.208 2.644-5.242 3.947-7.917a3.659 3.659 0 0 0-.298-4.4.52.52 0 0 0-.86.227 13.926 13.926 0 0 1-.865 3.834c-.546 1.12-1.362 2.092-1.941 3.195a4.836 4.836 0 0 0-.12 5.098.074.074 0 0 0 .082.032.074.074 0 0 0 .055-.069Z"/></g><defs><clipPath id="a"><path fill="#fff" d="M0 0h162.83v170.961H0z"/></clipPath></defs></svg>