<svg xmlns="http://www.w3.org/2000/svg" width="40" height="40" fill="none"><g fill="#49A2B7" clip-path="url(#a)"><path d="M12.361 33.103a34.586 34.586 0 0 0-2.409 4.37 3.16 3.16 0 0 0-.36 1.192 1.144 1.144 0 0 0 .534 1.062 1.194 1.194 0 0 0 1.088-.072 3.65 3.65 0 0 0 1.284-1.411A33.57 33.57 0 0 0 15.3 32.54a2.22 2.22 0 0 0 .206-1.115c-.213-1.331-1.544-.6-2.018.045-.39.533-.766 1.077-1.127 1.632ZM1.98 30.055c.17.093.357.15.55.167a3.1 3.1 0 0 0 1.504-.369 19.907 19.907 0 0 0 5.481-3.699c.347-.268.593-.646.7-1.071.369-2.662-7.12 2.23-7.819 2.74-.502.366-1.059.858-.981 1.474a1.038 1.038 0 0 0 .565.758ZM.459 14.901c.424.44.928.793 1.485 1.043a20.284 20.284 0 0 0 5.99 1.93 1.283 1.283 0 0 0 1.114-.184c1.643-1.62-6.406-4.368-7.362-4.643a1.522 1.522 0 0 0-1.398.074 1.192 1.192 0 0 0-.024 1.525c.06.089.125.174.195.255Zm26.83 18.871c-.184-.467-1.319-3.217-1.695-4.13-.292-.71-1.844-2.463-2.339-.858a2.06 2.06 0 0 0 .04 1.034 38.682 38.682 0 0 0 3.1 8.914c.106.273.286.51.52.684a1.067 1.067 0 0 0 1.414-.58 2.72 2.72 0 0 0 .035-1.695 21.826 21.826 0 0 0-1.075-3.369Zm10.178-11.718c-2.175-.822-6.233-2.139-6.593-.655-.146.6.526 1.055 1.096 1.292 2.092.871 4.27 1.52 6.498 1.938.48.09 1.064.134 1.374-.245a.957.957 0 0 0-.09-1.17 2.615 2.615 0 0 0-1.06-.673c-.209-.088-.651-.27-1.225-.487Zm-7.721-9.434a1.24 1.24 0 0 0-.532.73.882.882 0 0 0 .73.89c.42.059.849.003 1.24-.162a34.842 34.842 0 0 0 6.215-3.046 2.341 2.341 0 0 0 1.191-1.146c1.003-3.087-8.053 2.103-8.822 2.717l-.022.017Zm-7.044-2.85c.526.082.98-.542 1.211-1.073a61.44 61.44 0 0 0 2.558-7 2.09 2.09 0 0 0 .124-1.021c-.325-1.52-1.786-.097-2.084.587a41.964 41.964 0 0 0-2.327 6.913c-.137.568-.166 1.338.376 1.554a.66.66 0 0 0 .142.04ZM12.28 6.617c.396.97.842 1.92 1.336 2.845.208.388.494.82.933.851a.92.92 0 0 0 .873-.755 2.574 2.574 0 0 0-.114-1.238 40.342 40.342 0 0 0-2.218-6.222c-.368-.815-1.659-1.87-2.103-.407a2.5 2.5 0 0 0 .095 1.36 30.235 30.235 0 0 0 1.199 3.566Zm4.762 11.811a2.744 2.744 0 0 1 2.936-2.295 3.035 3.035 0 0 1 2.817 3.434 3.107 3.107 0 0 1-3.463 2.426 2.89 2.89 0 0 1-2.29-3.565Z"/></g><defs><clipPath id="a"><path fill="#fff" d="M0 0h40v39.825H0z"/></clipPath></defs></svg>