<svg xmlns="http://www.w3.org/2000/svg" width="256" height="132" fill="none"><g clip-path="url(#a)"><path fill="#222" d="M242.572 131.248c0 3.318-54.109 6.008-120.855 6.008-66.745 0-120.854-2.69-120.854-6.008s54.108-6.008 120.854-6.008c66.746 0 120.855 2.69 120.855 6.008Z" opacity=".1"/><path fill="#FC9BA9" d="M232.809 107.669a107.593 107.593 0 0 0-31.697-75.681 107.497 107.497 0 0 0-75.821-31.3 107.495 107.495 0 0 0-75.82 31.299 107.59 107.59 0 0 0-31.697 75.681h215.035Z"/><path fill="#9DD3CC" d="M215.515 107.67a90.284 90.284 0 0 0-26.6-63.508 90.204 90.204 0 0 0-63.624-26.264 90.205 90.205 0 0 0-63.624 26.264 90.285 90.285 0 0 0-26.6 63.508h180.448Z"/><path fill="#56AED9" d="M199.922 107.669a74.683 74.683 0 0 0-22.002-52.532 74.616 74.616 0 0 0-52.629-21.725 74.614 74.614 0 0 0-52.628 21.725A74.68 74.68 0 0 0 50.66 107.67h149.261Z"/><path fill="#A48CC2" d="M184.839 107.67a59.59 59.59 0 0 0-17.556-41.916 59.535 59.535 0 0 0-41.992-17.334 59.534 59.534 0 0 0-41.992 17.334 59.588 59.588 0 0 0-17.555 41.916h119.095Z"/><path fill="#E4E3F5" d="M169.774 108.522c-.062-11.175-4.597-21.871-12.614-29.752-8.018-7.88-18.866-12.303-30.173-12.303-11.308 0-22.155 4.423-30.173 12.303-8.017 7.88-12.552 18.577-12.614 29.752h85.574Z"/><path fill="#282827" d="M100.443 17.772c4.164-3.248 8.87-5.095 13.429-7.605a.781.781 0 0 0-.391-1.443c-5.486.483-10.347 4.207-13.735 8.35a.493.493 0 0 0 .697.698Zm37.123-9.017c2.101.609 3.914 2.266 5.761 3.39a57.155 57.155 0 0 0 5.439 3.224c.404.19.978-.228.674-.674a17.22 17.22 0 0 0-11.705-7.184c-.728-.055-.838 1.05-.169 1.244Zm-15.785 34.796a14.48 14.48 0 0 0 .018 8.102c.615 1.651 1.845 3.655 3.845 3.57 5.429-.233 5.835-10.236 4.31-13.68-.285-.645-1.118-.221-1.18.32-.198 1.725.058 3.43-.046 5.16-.091 1.494-.307 4.946-1.871 5.785l-2.436.152a6.388 6.388 0 0 1-1.2-2.076 12.212 12.212 0 0 1-.543-2.696 43.778 43.778 0 0 1-.344-4.562c-.008-.305-.49-.398-.553-.075Z"/><path fill="#FC9BA9" d="M100.659 58.68c5.61 0 10.158-4.55 10.158-10.163s-4.548-10.163-10.158-10.163c-5.61 0-10.159 4.55-10.159 10.163s4.55 10.163 10.16 10.163Zm59.423-12.517a10.168 10.168 0 0 1-6.271 9.389 10.153 10.153 0 0 1-11.07-2.203 10.17 10.17 0 0 1-2.202-11.075A10.16 10.16 0 0 1 149.924 36a10.156 10.156 0 0 1 10.158 10.163Z"/><path fill="#fff" d="M120.301 38.41c4.494-4.496 4.494-11.785 0-16.28-4.493-4.496-11.779-4.496-16.272 0-4.494 4.495-4.494 11.784 0 16.28 4.493 4.495 11.779 4.495 16.272 0Z"/><path fill="#282827" d="M112.165 18.758a11.5 11.5 0 0 0-3.469.535 11.506 11.506 0 0 0-.107 13.524 11.502 11.502 0 0 0 12.823 4.282 11.497 11.497 0 0 0-9.247-18.34Z"/><path fill="#fff" d="M147.561 38.41c4.494-4.496 4.494-11.785 0-16.28-4.494-4.496-11.779-4.496-16.273 0-4.493 4.495-4.493 11.784 0 16.28 4.494 4.495 11.78 4.495 16.273 0Z"/><path fill="#282827" d="M150.931 30.27c0 1.177-.18 2.348-.534 3.47a11.5 11.5 0 0 1-17.742-5.612 11.515 11.515 0 0 1-.057-7.11 11.488 11.488 0 0 1 18.333 9.252Z"/><path fill="#FF9DA0" d="M59.31 85.696a163.778 163.778 0 0 0-.351 36.595 1.056 1.056 0 0 0 2.111 0 163.826 163.826 0 0 0-.352-36.595.705.705 0 0 0-1.407 0Z"/><path fill="#FF9DA0" d="m59.38 120.877-14.417 1.676a9.391 9.391 0 0 0-5.1 1.633c-1.386 1.167-1.864 3.588-.467 4.743.913.584 2 .836 3.077.713l8.483-.02c2.852-.006 5.917-.079 8.221-1.761 2.304-1.683 3.112-5.626.8-7.299"/><path fill="#FF9DA0" d="M59.45 120.755c-2.922-1.652-7.229-.32-10.482-.048-2.852.238-6.398.063-9.002 1.533-3.688 2.081-4.155 7.666.463 8.81 3.21.795 7.25.23 10.526.203 2.9-.023 5.995-.077 8.545-1.644 3.617-2.224 5.067-7.642 1.188-10.262-1.132-.765-2.754.786-1.925 1.926 3.398 4.679-3.077 6.538-6.575 6.703-1.818.085-3.654.031-5.474.042l-2.828.017c-1.347.461-1.974-.054-1.88-1.545-.99-1.424-.591-2.127 1.197-2.111.718-.135 1.44-.258 2.162-.368 1.849-.299 3.706-.553 5.558-.829 2.884-.431 6.346-.166 8.556-2.206a.141.141 0 0 0-.028-.221Zm131.745-35.059a163.677 163.677 0 0 0-.352 36.595 1.059 1.059 0 0 0 1.055 1.017 1.054 1.054 0 0 0 1.056-1.017 163.796 163.796 0 0 0-.352-36.595.707.707 0 0 0-.704-.678.703.703 0 0 0-.703.678Z"/><path fill="#FF9DA0" d="m192.533 120.877 14.417 1.676a9.387 9.387 0 0 1 5.099 1.633c1.387 1.167 1.865 3.588.468 4.743-.913.584-2 .836-3.077.713l-8.483-.02c-2.852-.006-5.917-.079-8.221-1.761-2.304-1.683-3.112-5.626-.801-7.299"/><path fill="#FF9DA0" d="M192.433 120.976c2.07 1.91 5.054 1.683 7.763 2.087 2.117.316 4.239.607 6.352.948.723.11 1.444.233 2.162.369 1.788-.018 2.187.686 1.196 2.11.095 1.491-.532 2.006-1.88 1.545l-2.827-.017c-1.619-.01-3.239-.001-4.858-.034-3.512-.073-10.804-1.737-7.191-6.711.828-1.139-.793-2.691-1.925-1.926-3.635 2.455-2.629 7.551.671 9.95 2.405 1.749 5.587 1.916 8.445 1.953 3.456.045 7.768.637 11.143-.2 4.315-1.07 4.309-6.25.909-8.513-2.471-1.645-5.811-1.527-8.647-1.763-3.471-.29-8.169-1.779-11.284-.019a.148.148 0 0 0-.046.044.145.145 0 0 0-.016.123c.007.02.018.039.033.054Z"/><path fill="#F49099" d="M212.709 57.048c8.443 2.39 17.887-1.176 23.747-7.554 5.175-5.633 10.757-16.697 7.983-24.386-.183-.509-1.011-.767-1.286-.168-2.95 6.419-2.638 13.373-6.944 19.51-5.576 7.948-13.92 11.647-23.425 12.045a.282.282 0 0 0-.075.553Z"/><path fill="#F49099" d="M243.534 27.22a42.5 42.5 0 0 0-3.633-3.798c-1.219-1.375-1.98-3.13-3.238-4.438a1.715 1.715 0 0 0-2.04-.238 1.71 1.71 0 0 0-.801 1.892 13.329 13.329 0 0 0 3.53 4.963 11.03 11.03 0 0 0 4.831 3.378c.946.234 1.971-.858 1.351-1.758Z"/><path fill="#F49099" d="M242.472 27.835a31.431 31.431 0 0 1 1.835-11.281c.138-.545.45-1.03.889-1.381a2.717 2.717 0 0 1 2.453.19l6.544 2.745-10.046 10.149"/><path fill="#F49099" d="M243.019 28.155a9.989 9.989 0 0 0 .888-3.967 30.35 30.35 0 0 1 1.255-5.413c.243-.733.36-1.736 1.075-1.981.564-.193 1.384.36 1.904.567 1.881.747 3.754 1.517 5.631 2.276l-.699-2.65-5.311 5.508c-1.556 1.613-3.592 3.17-4.526 5.229a1.063 1.063 0 0 0 .183 1.261 1.068 1.068 0 0 0 1.261.184c2.049-.955 3.583-3.002 5.181-4.574l5.453-5.366a1.6 1.6 0 0 0-.321-2.49 68.182 68.182 0 0 0-7.511-3.236 3.532 3.532 0 0 0-4.073 1.232 16.172 16.172 0 0 0-1.783 6.537c-.319 2.202-.887 4.893.299 6.884a.639.639 0 0 0 1.094 0ZM43.052 56.495c-9.523-.4-17.828-4.105-23.425-12.044-4.326-6.139-3.992-13.088-6.943-19.511-.276-.6-1.102-.344-1.287.168-2.768 7.673 2.82 18.77 7.983 24.386 5.864 6.38 15.3 9.945 23.747 7.554a.282.282 0 0 0 .106-.48.282.282 0 0 0-.18-.073Z"/><path fill="#F49099" d="M13.653 28.98a11.036 11.036 0 0 0 4.831-3.379 13.376 13.376 0 0 0 3.53-4.963 1.713 1.713 0 0 0-2.84-1.654c-1.258 1.307-2.02 3.063-3.238 4.438a42.507 42.507 0 0 0-3.634 3.799c-.62.9.4 1.994 1.351 1.758Z"/><path fill="#F49099" d="M13.364 27.835a31.412 31.412 0 0 0-1.835-11.281 2.577 2.577 0 0 0-.889-1.381 2.717 2.717 0 0 0-2.452.19l-6.545 2.745L11.69 28.257"/><path fill="#F49099" d="M13.911 28.155c1.114-1.87.645-4.333.367-6.407-.295-2.2-.56-5.123-1.85-7.013a3.43 3.43 0 0 0-3.754-1.305 47.147 47.147 0 0 0-7.83 3.309 1.596 1.596 0 0 0-.321 2.49l5.452 5.366c1.598 1.572 3.132 3.62 5.181 4.574a1.066 1.066 0 0 0 1.444-1.445c-.934-2.059-2.97-3.616-4.525-5.23l-5.311-5.507-.7 2.65 5.162-2.086c.523-.212 1.448-.868 2.024-.795 1.074.135 1.092 1.027 1.424 2.018a30.173 30.173 0 0 1 1.149 4.637 13.23 13.23 0 0 0 .995 4.744.64.64 0 0 0 1.093 0Z"/></g><defs><clipPath id="a"><path fill="#fff" d="M.065.689h255.706v130.806H.065z"/></clipPath></defs></svg>