<svg xmlns="http://www.w3.org/2000/svg" width="93" height="58" fill="none"><g clip-path="url(#a)"><path fill="#FFB24F" d="M90.472 4.7c2.603-.206 3.273-5.23-.063-4.654-2.678.472-2.875 4.869.063 4.654Z"/><path fill="#7ED1D1" d="M4.997 27.985c5.53.483 7.96-10.957-.622-9.918a5.199 5.199 0 0 0-3.231 1.798A4.881 4.881 0 0 0 .009 23.3a4.92 4.92 0 0 0 1.556 3.277 5.246 5.246 0 0 0 3.432 1.408Z"/><path fill="#D8D7E0" d="M70.913 55.084a2.17 2.17 0 0 0-.074-.369 2.464 2.464 0 0 0-2.133-1.711 2.565 2.565 0 0 0-2.398 1.343 2.389 2.389 0 0 0 3.286 3.233 2.585 2.585 0 0 0 1.319-2.496Z"/></g><defs><clipPath id="a"><path fill="#fff" d="M0 0h92.673v57.908H0z"/></clipPath></defs></svg>