<svg xmlns="http://www.w3.org/2000/svg" width="141" height="137" fill="none"><g clip-path="url(#a)"><path fill="#FEC179" d="M117.078 75.069c4.308-26.866-13.979-52.137-40.844-56.445-26.866-4.308-52.137 13.979-56.445 40.844-4.308 26.866 13.979 52.137 40.844 56.445 26.866 4.308 52.137-13.978 56.445-40.844Z"/><path fill="#282827" d="M51.431 56.718a45.688 45.688 0 0 1 4.5-2.828c1.563-.881 3.254-1.417 4.773-2.373a.681.681 0 0 0-.342-1.26c-3.855.109-7.271 2.946-9.519 5.873-.26.337.25.835.588.588Zm25.359-6.176a21.573 21.573 0 0 1 4.09 2.53 21.925 21.925 0 0 0 3.651 1.996c.365.138.66-.328.486-.632a10.785 10.785 0 0 0-8.08-4.98c-.643-.03-.723.901-.147 1.086ZM65.983 74.18a9.442 9.442 0 0 0-.084 5.59c.448 1.217 1.354 2.64 2.819 2.553 3.736-.22 4.31-7.146 3.006-9.56a.559.559 0 0 0-1.01.131c-.412 2.111.636 5.488-1.09 7.19-2.632 2.594-3.086-4.512-3.158-5.838-.015-.265-.419-.349-.483-.066Z"/><path fill="#FB974E" d="M45.907 86.234a9.29 9.29 0 1 0 0-18.578 9.29 9.29 0 1 0 0 18.578Zm45.053 0a9.29 9.29 0 1 0 0-18.58 9.29 9.29 0 0 0 0 18.58Z"/><path fill="#282827" d="M78.092 72.985a7.853 7.853 0 1 0-.021-15.705 7.853 7.853 0 0 0 .021 15.705ZM51.6 65.122a7.853 7.853 0 1 1 15.706.022 7.853 7.853 0 0 1-15.706-.022Z"/><path fill="#FF955A" d="M68.507.014a3.906 3.906 0 0 0-2.85 4.295 11.65 11.65 0 0 0 1.532 3.928c.515.852.838 1.806.949 2.795.02.869-.336 1.638-.286 2.511a1.064 1.064 0 0 0 1.322 1.008c2.143-.335 2.475-2.864 2.015-4.653-.585-2.276-5.335-6.889-2.303-8.986a.494.494 0 0 0-.379-.898Zm.477 121.354c-2.283-.297-3.632 1.863-3.475 3.923a11.458 11.458 0 0 0 1.547 3.849c.98 2.217-.347 3.407-.385 5.62a1.852 1.852 0 0 0 .932 1.588 1.86 1.86 0 0 0 1.841.003 6.593 6.593 0 0 0 2.484-6.738c-.314-1.246-4.031-5.446-2.478-6.528a.927.927 0 0 0 .401-1.03.929.929 0 0 0-.867-.687Zm54.133-53.761c3.277-.686 6.218.804 9.529.515a9.76 9.76 0 0 0 7.247-3.666c.954-1.382-.618-3.076-2.082-2.708-1.524.384-2.839 1.217-4.38 1.583a14.951 14.951 0 0 1-5.574.096c-2.51-.318-5.021-.453-6.544 1.833-.825 1.24.533 2.613 1.804 2.347ZM1.557 66.25c1.14-.151 1.828-.857 2.915-.42 1.364.547 2.298 1.918 3.772 2.452a4.99 4.99 0 0 0 6.217-2.093 2.46 2.46 0 0 0-4.245-2.481 30.476 30.476 0 0 1-2.734-1.632 6.904 6.904 0 0 0-3.797-.944C1.66 61.308-.5 62.928.103 65.144a1.518 1.518 0 0 0 1.454 1.107Z"/><path fill="#FBE570" d="M113.785 21.125c.73 3.463-5.529 3.506-7.466 4.452-1.579.772-4.306 3.516-2.214 5.204a1.091 1.091 0 0 0 1.266.164c1.182-.678 1.464-2.131 2.758-2.828 1.503-.81 3.283-.946 4.78-1.8a4.018 4.018 0 0 0 2.085-2.404 4.035 4.035 0 0 0-.311-3.167.493.493 0 0 0-.898.379Zm-86.787 85.996c.255 1.302-2.352 1.721-3.085 1.846a8.758 8.758 0 0 0-3.524 1.174 6.44 6.44 0 0 0-2.765 6.375 1.863 1.863 0 0 0 3.08.813c1.135-1.017 1.189-2.759 2.4-3.682 1.248-.952 3.117-.849 4.47-1.695 2.124-1.327 3.002-4.217.778-5.872-.707-.526-1.49.34-1.354 1.041Z"/><path fill="#FF955A" d="M31.205 29.567c.861-2.651-1.641-4.67-3.526-6.098a13.729 13.729 0 0 1-3.467-3.55c-.942-1.445-1.244-3.147-2.196-4.54a1.868 1.868 0 0 0-3.368.44c-.74 2.807 1.023 6.123 2.887 8.156a16.446 16.446 0 0 0 3.423 2.72 10.904 10.904 0 0 1 3.328 3.254 1.621 1.621 0 0 0 2.92-.382Zm85.761 85.62c2.498-1.295 1.352-4.629-.348-6.063a8.022 8.022 0 0 0-3.31-1.509c-.642-.158-1.319-.213-1.949-.412-.394-.125-.459-.277-.477-.22.953-3.035-3.733-4.283-4.739-1.306a5.052 5.052 0 0 0 3.42 6.193c1.122.324 2.275.53 3.44.615 1.546.237 1.195 1.074 1.978 2.182a1.5 1.5 0 0 0 .889.655c.369.096.761.048 1.096-.135Z"/><path fill="#FBE570" d="M8.855 38.367a3.987 3.987 0 0 0 3.052 4.686c1.73.463 3.512-.027 5.245.25 1.52.244 2.308 1.395 3.677 1.842a1.05 1.05 0 0 0 1.18-.48c.962-2.052-.998-3.676-2.888-4.149-2.48-.62-8.795 1.629-9.318-2.15-.068-.492-.842-.443-.948 0Z"/><path fill="#FF955A" d="M120.522 86.433c-1.404 2.148.228 4.495 2.457 5.128 1.676.476 3.612-.342 5.195.319 1.308.546 1.834 2.062 3.141 2.636 1.168.514 2.87-.054 2.773-1.59a6.411 6.411 0 0 0-3.918-5.032 7.202 7.202 0 0 0-3.731-.357c-.984.12-3.949.867-4.232-.884-.137-.84-1.293-.82-1.685-.22ZM93.751 20.131c.851-3.189 3.337-5.108 4.645-8.098a9.849 9.849 0 0 0 .156-8.34 1.862 1.862 0 0 0-3.369.44c-.34 1.528-.202 3.061-.548 4.591a14.018 14.018 0 0 1-2.297 4.931c-1.431 2.088-2.893 4.422-1.506 6.858a1.616 1.616 0 0 0 2.92-.382ZM38.008 127.708c.462-1.3-.233-1.953 1.2-2.708a15.486 15.486 0 0 0 3.332-1.892 5.037 5.037 0 0 0 1.169-6.579c-1.745-2.61-5.96-.206-4.245 2.481.194.305-1.925 1.346-2.19 1.522a7.88 7.88 0 0 0-2.697 2.604c-1.011 1.842-.928 5.11 1.576 5.625a1.554 1.554 0 0 0 1.855-1.053Z"/><path fill="#FBE37B" d="M44.98 4.722a3.984 3.984 0 0 0-.973 5.49 20.433 20.433 0 0 0 3.16 3.235c1.291 1.336 1.279 2.783 1.968 4.367a1.057 1.057 0 0 0 1.43.375c2.058-1.142 1.369-3.722.181-5.31-1.45-1.94-7.222-4.428-5.094-7.484.28-.402-.273-.94-.672-.673Z"/><path fill="#FBE570" d="M87.916 118.243c-2.558.586-2.893 3.474-1.695 5.453.79 1.306 2.213 1.897 3.112 3.061 1.165 1.509.419 3.452 1.159 5.151a1.854 1.854 0 0 0 1.356.894 1.853 1.853 0 0 0 1.538-.521 6.438 6.438 0 0 0 .212-7.138c-.763-1.215-5.843-3.809-4.641-5.547.485-.701-.313-1.52-1.04-1.353Z"/><path fill="#FF955A" d="M119.614 49.051a10.848 10.848 0 0 1 3.924-1.595 20.578 20.578 0 0 0 4.529-1.009c2.523-.985 5.757-3.288 6.251-6.126a1.862 1.862 0 0 0-.676-1.92 1.87 1.87 0 0 0-2.031-.16c-1.443.869-2.41 2.267-3.848 3.196a14.119 14.119 0 0 1-4.785 1.884c-2.558.586-5.419 1.392-5.768 4.351-.149 1.27 1.448 1.9 2.404 1.38ZM5.624 90.11a6.33 6.33 0 0 0 1.04-.85c.7-.547.82-.535 1.765-.326 1.2.413 2.438.7 3.697.856a5.075 5.075 0 0 0 5.277-3.83c.718-3.074-3.955-4.384-4.742-1.307-.111.436-3.063-.397-3.592-.452a6.175 6.175 0 0 0-3.553.53c-1.66.866-3.244 3.029-1.955 4.838a1.552 1.552 0 0 0 2.063.54Z"/></g><defs><clipPath id="a"><path fill="#fff" d="M0 0h140.184v136.594H0z"/></clipPath></defs></svg>