<svg xmlns="http://www.w3.org/2000/svg" width="253" height="160" fill="none"><g clip-path="url(#a)"><path fill="#7ED1D1" d="M10.815 15.376a32.252 32.252 0 0 0-4.358-.576 2.954 2.954 0 0 0-1.095.074 1.02 1.02 0 0 0-.462.272.933.933 0 0 0-.245.458.946.946 0 0 0 .095.458c.07.144.174.27.306.367.458.32 1 .521 1.567.58 1.84.328 3.708.49 5.58.486.338.024.676-.035.983-.17 1.03-.562.01-1.38-.672-1.557a32.622 32.622 0 0 0-1.699-.392ZM10.06 6.4c-.024.16-.012.321.034.476.16.41.428.775.778 1.06a17.605 17.605 0 0 0 4.771 3.165c.331.19.72.27 1.103.226 2.31-.503-4.077-4.874-4.718-5.266-.46-.282-1.04-.57-1.523-.326a.893.893 0 0 0-.308.282.832.832 0 0 0-.138.383ZM22.065.72c-.229.46-.362.957-.392 1.464-.19 1.747-.09 3.512.296 5.23.012.163.064.32.15.461.088.14.208.261.351.351 1.852.797 1.583-6.277 1.509-7.102a1.203 1.203 0 0 0-.113-.59 1.279 1.279 0 0 0-.388-.475 1.11 1.11 0 0 0-.716 0 1.04 1.04 0 0 0-.548.434 2.15 2.15 0 0 0-.15.227ZM14.96 27.181c.328-.281 2.237-1.98 2.87-2.542.492-.439 1.449-2.165-.03-2.074-.305.043-.594.16-.839.337a33.709 33.709 0 0 0-6.367 5.057c-.192.163-.33.373-.4.607-.091.471.416.896.922.927a2.48 2.48 0 0 0 1.408-.476 19.083 19.083 0 0 0 2.437-1.836Zm12.857 4.437c-.007-1.934-.2-5.48-1.535-5.32-.54.065-.704.722-.72 1.236a25.536 25.536 0 0 0 .45 5.627c.076.4.223.867.633.995a.89.89 0 0 0 .543-.057.823.823 0 0 0 .392-.359c.161-.319.237-.67.222-1.024.006-.189.017-.587.015-1.098Zm5.342-8.803a1.14 1.14 0 0 0-.768-.197.769.769 0 0 0-.415.328.699.699 0 0 0-.088.504c.083.344.263.66.522.916a30.1 30.1 0 0 0 4.466 3.929c.35.34.818.548 1.318.586 2.86-.136-4.266-5.638-5.013-6.054l-.022-.012Zm.132-6.323c.098.434.754.601 1.265.624a57.41 57.41 0 0 0 6.572-.088c.307 0 .61-.07.88-.207 1.15-.704-.482-1.418-1.14-1.447a39.162 39.162 0 0 0-6.427.243c-.512.061-1.155.267-1.162.753a.5.5 0 0 0 .012.122Zm-.681-9.038a25.866 25.866 0 0 0-1.924 1.882c-.148.119-.262.27-.333.441-.072.17-.097.355-.075.537.072.16.2.294.363.377a.86.86 0 0 0 .534.078c.362-.074.7-.23.984-.457a35.08 35.08 0 0 0 4.428-3.57c.555-.528 1.018-1.845-.326-1.756-.404.06-.782.226-1.092.477a26.365 26.365 0 0 0-2.56 1.99Zm-8.233 7.206a2.543 2.543 0 0 1 1.74.281c.522.297.906.769 1.075 1.321a2.394 2.394 0 0 1-.232 2.003 2.58 2.58 0 0 1-.723.771c-.294.208-.63.356-.988.436a2.871 2.871 0 0 1-1.955-.415 2.588 2.588 0 0 1-1.133-1.558 2.27 2.27 0 0 1 .018-.982c.078-.323.226-.627.434-.893.208-.267.472-.49.775-.655.304-.166.64-.27.989-.308Z"/><path fill="#49A2B7" d="M225.035 41.004a28.733 28.733 0 0 0 3.38 2.25c.286.186.608.316.949.383a1 1 0 0 0 .51-.04.948.948 0 0 0 .414-.284.893.893 0 0 0 .04-.851 2.91 2.91 0 0 0-1.045-1.12 28.128 28.128 0 0 0-4.441-2.671 1.921 1.921 0 0 0-.9-.257c-1.116.051-.636 1.149-.148 1.573.404.35.817.69 1.241 1.017Zm-3.46 7.808c.092-.124.156-.264.187-.412a2.286 2.286 0 0 0-.166-1.202 15.274 15.274 0 0 0-2.545-4.581 1.602 1.602 0 0 0-.818-.636c-2.159-.517 1.185 5.727 1.541 6.315.256.422.61.898 1.125.89a.9.9 0 0 0 .386-.11.843.843 0 0 0 .29-.264Zm-12.623-.126c.401-.291.738-.653.995-1.065a15.45 15.45 0 0 0 2.137-4.49.943.943 0 0 0-.049-.883c-1.183-1.417-4.184 4.604-4.499 5.324a1.136 1.136 0 0 0-.066 1.093c.157.16.369.262.598.29.229.027.461-.022.656-.14a2.16 2.16 0 0 0 .228-.129Zm18.002-19.231c-.402.103-2.772.747-3.557.96-.612.167-2.199 1.222-.922 1.745.275.088.57.109.855.06a33.7 33.7 0 0 0 7.628-1.642 1.3 1.3 0 0 0 .611-.345.807.807 0 0 0 .082-.644.843.843 0 0 0-.43-.505 2.369 2.369 0 0 0-1.394-.174c-.972.108-1.933.29-2.873.545Zm-17.2-3.737c.114.218.311.389.552.476a.767.767 0 0 0 .497-.105.69.69 0 0 0 .303-.386 1.728 1.728 0 0 0-.019-.977 26.238 26.238 0 0 0-1.941-5.096 1.843 1.843 0 0 0-.834-1.024c-2.451-1.047.995 6.442 1.43 7.093l.012.019Zm-2.993 5.231c.116-.402-.356-.808-.773-1.034a52.212 52.212 0 0 0-5.532-2.594 1.82 1.82 0 0 0-.83-.184c-1.281.121-.243 1.38.293 1.671 1.75.95 3.584 1.756 5.482 2.406.455.156 1.087.245 1.315-.158a.521.521 0 0 0 .045-.107Zm-3.551 7.831a26.028 26.028 0 0 0 2.465-.793c.339-.129.721-.314.787-.652a.688.688 0 0 0-.131-.462.765.765 0 0 0-.411-.282 2.253 2.253 0 0 0-1.03-.019c-1.808.258-3.59.655-5.329 1.188-.705.216-1.691 1.128-.528 1.6.365.113.756.128 1.13.044a26.329 26.329 0 0 0 3.047-.625Zm10.166-2.683a2.267 2.267 0 0 1-1.327-.94 2.045 2.045 0 0 1-.296-1.541c.06-.32.189-.627.38-.898.19-.272.438-.504.728-.682a2.6 2.6 0 0 1 .955-.35 2.662 2.662 0 0 1 1.024.037 2.545 2.545 0 0 1 1.445 1.139 2.31 2.31 0 0 1 .237 1.762 2.22 2.22 0 0 1-.464.813 2.37 2.37 0 0 1-.769.571 2.521 2.521 0 0 1-1.913.089Z"/><path fill="#FC9DC0" d="M.202 74.007c-.131.455-.14.933-.025 1.391.114.459.349.883.682 1.234a8.285 8.285 0 0 0 2.753 1.783 6.502 6.502 0 0 0-3.2 2.057A2.07 2.07 0 0 0 .03 82.05c.104.41.34.781.676 1.06.36.295.779.518 1.231.658.453.14.93.194 1.405.159a6.516 6.516 0 0 0 2.688-.822c-.376 1.322-.704 2.88.217 3.938.406.41.941.688 1.527.79a2.93 2.93 0 0 0 1.726-.219 4.25 4.25 0 0 0 1.366-1.057 3.97 3.97 0 0 0 .799-1.486 5.536 5.536 0 0 0 2.65 1.678c.346.087.71.09 1.057.011.348-.08.67-.24.936-.466.266-.227.467-.512.586-.83.12-.32.152-.661.096-.995-.163-1.695-.934-3.286-2.185-4.512a12.9 12.9 0 0 0 2.628-1.03 4.038 4.038 0 0 0 1.843-1.982c.169-.421.209-.878.116-1.32a2.36 2.36 0 0 0-.64-1.178 3.538 3.538 0 0 0-2.408-.7 18.4 18.4 0 0 0-4.484.777 7.67 7.67 0 0 0 .444-3.077 2.367 2.367 0 0 0-.605-1.59 2.635 2.635 0 0 0-1.552-.842 2.728 2.728 0 0 0-1.761.306c-.53.296-.931.76-1.132 1.31a7.7 7.7 0 0 0-.716 3.562 8.558 8.558 0 0 0-3.083-1.572 3.026 3.026 0 0 0-1.728.07 2.848 2.848 0 0 0-1.371.995c-.061.102-.113.21-.153.32Z"/><path fill="#fff" d="M7.862 77.508a1.934 1.934 0 0 0-.15 2.2 2.1 2.1 0 0 0 .873.803c.367.182.783.26 1.196.225 2.043-.283 3.233-2.684 1.186-3.837a2.529 2.529 0 0 0-2.65.155 2.152 2.152 0 0 0-.455.454Z"/><path fill="#FFDB82" d="M151.788 35.985c-.131.454-.14.933-.025 1.391.114.459.349.883.682 1.234a8.278 8.278 0 0 0 2.753 1.783 6.502 6.502 0 0 0-3.199 2.056 2.066 2.066 0 0 0-.384 1.58c.104.41.34.78.676 1.06.36.294.779.518 1.231.658.453.14.93.194 1.405.158a6.515 6.515 0 0 0 2.688-.821c-.376 1.322-.703 2.88.217 3.937.406.411.941.688 1.527.791a2.938 2.938 0 0 0 1.727-.219 4.24 4.24 0 0 0 1.365-1.057 3.96 3.96 0 0 0 .799-1.487 5.531 5.531 0 0 0 2.65 1.679c.346.087.709.09 1.058.01.348-.079.669-.24.935-.466a2.02 2.02 0 0 0 .586-.83c.12-.319.153-.66.096-.994-.163-1.695-.934-3.287-2.185-4.513a12.923 12.923 0 0 0 2.628-1.029 4.038 4.038 0 0 0 1.843-1.983c.169-.42.209-.878.117-1.32a2.366 2.366 0 0 0-.641-1.177 3.538 3.538 0 0 0-2.408-.7 18.408 18.408 0 0 0-4.484.777 7.69 7.69 0 0 0 .445-3.077 2.37 2.37 0 0 0-.606-1.59 2.633 2.633 0 0 0-1.552-.842 2.729 2.729 0 0 0-1.761.306c-.53.296-.931.76-1.132 1.31a7.696 7.696 0 0 0-.715 3.561 8.564 8.564 0 0 0-3.084-1.571 3.024 3.024 0 0 0-1.728.07 2.848 2.848 0 0 0-1.371.995 1.85 1.85 0 0 0-.153.32Z"/><path fill="#fff" d="M159.448 39.485a1.958 1.958 0 0 0-.42 1.08c-.026.39.068.78.27 1.12a2.1 2.1 0 0 0 .874.803c.367.182.782.26 1.195.225 2.043-.282 3.233-2.684 1.186-3.837a2.524 2.524 0 0 0-1.349-.298 2.5 2.5 0 0 0-1.301.453c-.175.13-.328.282-.455.454Z"/><path fill="#FFDB82" d="M11.856 120.398c-.131.455-.14.933-.025 1.392.114.458.349.882.682 1.233a8.286 8.286 0 0 0 2.753 1.783 6.507 6.507 0 0 0-3.2 2.057 2.067 2.067 0 0 0-.383 1.579c.104.411.34.781.676 1.061.36.294.779.517 1.231.657.453.14.93.194 1.405.159a6.517 6.517 0 0 0 2.688-.822c-.376 1.322-.704 2.88.217 3.938.406.411.941.688 1.527.791.585.103 1.19.026 1.727-.22a4.244 4.244 0 0 0 1.365-1.057c.373-.438.645-.944.799-1.486a5.531 5.531 0 0 0 2.65 1.678c.346.087.71.091 1.057.011.349-.079.67-.24.936-.466.266-.226.467-.512.586-.831.12-.318.152-.66.096-.994-.163-1.695-.934-3.286-2.185-4.512a12.964 12.964 0 0 0 2.628-1.029 4.04 4.04 0 0 0 1.843-1.983c.169-.421.21-.878.117-1.32a2.366 2.366 0 0 0-.641-1.178 3.54 3.54 0 0 0-2.408-.7 18.39 18.39 0 0 0-4.484.778c.357-.99.508-2.035.445-3.078a2.368 2.368 0 0 0-.606-1.59 2.637 2.637 0 0 0-1.552-.842 2.728 2.728 0 0 0-1.761.307c-.53.296-.931.76-1.132 1.309a7.7 7.7 0 0 0-.715 3.562 8.57 8.57 0 0 0-3.084-1.572 3.029 3.029 0 0 0-1.728.07 2.845 2.845 0 0 0-1.371.995c-.061.102-.113.21-.153.32Z"/><path fill="#fff" d="M19.516 123.899a1.936 1.936 0 0 0-.15 2.201c.203.341.507.619.874.802.367.182.782.26 1.195.225 2.044-.283 3.233-2.684 1.186-3.837a2.531 2.531 0 0 0-2.65.155 2.159 2.159 0 0 0-.455.454Z"/><path fill="#FC9DC0" d="M237.881 115.091a3.156 3.156 0 0 0-1.475-.017c-.485.11-.934.334-1.304.649a7.78 7.78 0 0 0-1.877 2.606 6.118 6.118 0 0 0-2.195-3.008 2.399 2.399 0 0 0-1.675-.355c-.435.1-.827.325-1.122.643-.31.341-.545.737-.691 1.165a3.213 3.213 0 0 0-.161 1.326c.086.896.388 1.762.883 2.532-1.402-.349-3.056-.65-4.172.223a2.585 2.585 0 0 0-.831 1.445 2.502 2.502 0 0 0 .24 1.628c.278.496.661.933 1.127 1.283a4.407 4.407 0 0 0 1.58.746 5.187 5.187 0 0 0-1.767 2.508 1.92 1.92 0 0 0-.006.998c.085.328.257.631.498.881.241.249.545.438.883.549.339.111.701.141 1.054.086a8.148 8.148 0 0 0 4.773-2.083c.266.862.636 1.692 1.103 2.474a4.13 4.13 0 0 0 2.11 1.73c.447.157.932.193 1.399.104.468-.09.899-.301 1.246-.61a3.083 3.083 0 0 0 .73-2.275 15.61 15.61 0 0 0-.845-4.228 9.052 9.052 0 0 0 3.264.406 2.697 2.697 0 0 0 1.683-.579c.47-.375.784-.896.885-1.469a2.336 2.336 0 0 0-.333-1.66 2.578 2.578 0 0 0-1.393-1.061 9.036 9.036 0 0 0-3.779-.658 7.79 7.79 0 0 0 1.651-2.917 2.552 2.552 0 0 0-.082-1.63 2.722 2.722 0 0 0-1.062-1.289 2.152 2.152 0 0 0-.339-.143Z"/><path fill="#fff" d="M234.207 122.334a2.226 2.226 0 0 0-1.146-.39 2.246 2.246 0 0 0-1.187.26 2.08 2.08 0 0 0-.846.827 1.937 1.937 0 0 0-.233 1.129c.309 1.927 2.86 3.037 4.072 1.101a2.166 2.166 0 0 0-.176-2.499 2.202 2.202 0 0 0-.484-.428Z"/><path fill="#7ED1D1" d="M210.661 156.169a3.35 3.35 0 0 0 1.552.162 3.279 3.279 0 0 0 1.446-.557 8.375 8.375 0 0 0 2.264-2.564 6.371 6.371 0 0 0 1.983 3.386c.48.384 1.099.576 1.727.538a2.363 2.363 0 0 0 1.252-.568c.364-.33.655-.724.856-1.161a3.42 3.42 0 0 0 .316-1.382 5.958 5.958 0 0 0-.653-2.754c1.44.504 3.149.983 4.421.172.5-.364.862-.869 1.035-1.442a2.636 2.636 0 0 0-.075-1.739 4.272 4.272 0 0 0-1.047-1.462 4.599 4.599 0 0 0-1.583-.942 5.583 5.583 0 0 0 2.138-2.47 2.03 2.03 0 0 0 .116-1.051 2.078 2.078 0 0 0-.429-.977 2.256 2.256 0 0 0-.87-.665 2.4 2.4 0 0 0-1.102-.194 8.723 8.723 0 0 0-5.258 1.73 11.986 11.986 0 0 0-.891-2.716 4.305 4.305 0 0 0-2.035-2.029 2.845 2.845 0 0 0-2.843.275 3.298 3.298 0 0 0-1.019 2.327 16.504 16.504 0 0 0 .426 4.537 9.55 9.55 0 0 0-3.395-.746 2.877 2.877 0 0 0-1.837.446 2.607 2.607 0 0 0-1.094 1.461 2.465 2.465 0 0 0 .169 1.782 2.685 2.685 0 0 0 1.352 1.255 9.508 9.508 0 0 0 3.91 1.064 8.37 8.37 0 0 0-2.06 2.912 2.71 2.71 0 0 0-.093 1.726c.158.571.5 1.082.978 1.462.108.071.223.132.343.184Z"/><path fill="#05103A" d="M42.772 91.832c.774-2.808-14.3-1.418-13.295-16.191.137-2.019.056-.882 3.439-2.798 2.704-1.552 1.973-4.392-1.93-2.669 2.412-4.41-1.054-5.845-2.914-.842-1.887-5.79-5.367-2.144-1.95 4.445-4.774 16.908 16.866 20.842 16.65 18.055Z"/><path fill="#E75788" d="M108.007 24.154c-2.928 0-39.414 32.242-36.142 34.635-4.17 8.34 25.377 6.15 35.046 5.448 7.202-.497 6.753 2.163 4.033-25.162-1.471-14.784-1.401-14.92-2.937-14.92Z"/><path fill="#792798" d="M97.718 57.713c2.343 1.123 3.273-.81 2.194-1.946-.549-.581-12.697-9.347-16.546-11.2-.855.82-1.689 1.632-2.49 2.427.162.26.35.503.563.729.116.122 14.853 10.404 16.28 9.99Zm-5.695 6.364c2.343 1.124 3.273-.81 2.194-1.946-.572-.605-13.744-10.102-16.99-11.4a83.225 83.225 0 0 0-2.175 2.4c.185.347.418.668.692.956.116.122 14.853 10.404 16.28 9.99Zm18.257-6.78c.39.204.845.27 1.282.183a1.875 1.875 0 0 0 1.097-.652 96.824 96.824 0 0 0-.115-1.531 3.396 3.396 0 0 0-.423-.581c-1.732-1.912-17.68-13.161-22.68-15.812-.723.654-1.442 1.313-2.158 1.974 4.305 4.885 19.503 15.075 22.997 16.419Zm1.46-10.371-.344-3.37c-3.402-2.864-11.67-8.964-15.769-10.114-.67.575-1.348 1.165-2.037 1.768 2.144 2.984 13.986 11.122 18.15 11.716Zm-2.795-9.529a2.144 2.144 0 0 0 1.842.095l-.306-3.083c-1.06-1.29-3.127-2.872-6.69-4.563a27.9 27.9 0 0 0-2.465-1.145c-.753.602-1.542 1.245-2.37 1.93 1.354 1.574 9.723 6.643 9.989 6.766Zm106.574 17.682c-8.848 0-20.203 16.181-24.421 24.007-6.514 12.044-9.49 13.33.535 22.829 9.282 8.783 19.809 11.49 24.855 11.313 6.273-.258 8.184-8.527-3.38-16.499-7.598-5.266-9.196-3.448 1.879-4.348 5.447-.46 16.098-1.454 18.122-6.62 1.009-2.617-.472-5.758-2.776-7.376-3.962-2.807-12.605-1.948-17.425-.82-9.425 2.23-9.106 5.271-2.352-3.809 4.725-6.353 13.193-18.677 4.963-18.677Z"/><path fill="#FFB24F" d="M52.68 53.398c-16.488 0-13.92-.467-14.605 8.846-1.901 14.418-1.711 32.972-1.415 41.403.781 23.737.526 21.701 10.001 23.141 33.405 5.139 73.769 3.174 73.643 3.177 80.489-1.913 73.625-4.881 73.137-12.149-4.406-63.95-1.631-59.37-8.864-58.853-2.383.114-131.771-5.565-131.897-5.565Z"/><path fill="#792798" d="M197.229 90.663a1.713 1.713 0 0 0-.283-.587 2.617 2.617 0 0 0-.451-.525 4.772 4.772 0 0 0-1.214-.796 9.137 9.137 0 0 0-1.376-.527 9.381 9.381 0 0 0-1.848-.43 1.422 1.422 0 0 0-.52-.444 1.516 1.516 0 0 0-.681-.16h-.025a51.97 51.97 0 0 0-5.317.441c-.765.09-1.533.18-2.301.256-.774.074-1.552.132-2.332.189l-5.47.448c-4.33.351-8.747.525-13.018.693 0 0-6.848.291-8.904.39.236-2.521.38-5.055.52-7.527 0 0 .293-5.03.455-6.946.051-.623.39-4.398.47-5.662.074-1.24.101-2.457.077-3.616l-.016-.892a72.331 72.331 0 0 0-.076-2.675 17.997 17.997 0 0 0-.53-3.646 8.48 8.48 0 0 0-.568-1.55 3.915 3.915 0 0 0-.865-1.11 4.661 4.661 0 0 0-3.161-1.187 4.834 4.834 0 0 0-1.9.38 4.081 4.081 0 0 0-1.979 1.82 5.197 5.197 0 0 0-.382 2.848c-.134 2.021-.372 4.071-.604 6.054-.141 1.223-.284 2.445-.405 3.67-.158 1.642-.258 3.317-.354 4.937 0 0-.728 12.595-.949 15.63-5.407.296-100.202 4.385-102.883 4.657a10.545 10.545 0 0 0-4.842 1.437A4.001 4.001 0 0 0 34 97.998c-.169.413-.257.85-.26 1.292a3.22 3.22 0 0 0 .383 1.489 4.677 4.677 0 0 0 1.792 1.694c.338.203.69.386 1.052.546a16.74 16.74 0 0 0 1.583.657 27.16 27.16 0 0 0 7.317 1.128c2.27.135 4.586.203 6.826.269l1.03.031c3.963.116 8.232.172 13.057.172.999 0 1.997-.002 2.995-.006 4.393-.016 10.176-.061 15.948-.282 1.92-.07 15.927-.679 15.927-.679 5.436-.231 10.853-.579 15.934-.914l1.304-.091c2.179-.15 4.432-.305 6.65-.394 1.152-.047 6.467-.206 7.973-.277 2.752-.129 5.52-.405 7.961-.647l.895-.089a211.163 211.163 0 0 0-.324 14.27c.008.615.009 1.232.011 1.849-.114 3.099.14 6.201.759 9.247.139.648.365 1.277.671 1.873.196.339.47.632.802.858a2.48 2.48 0 0 0 1.333.395 2.632 2.632 0 0 0 1.246-.335c.369-.215.684-.504.92-.848a7.742 7.742 0 0 0 1.039-2.363c.231-.824.411-1.661.538-2.505.167-.97.329-1.939.485-2.915.346-2.155.618-4.069.827-5.851 0 0 1.521-13.589 1.618-14.607.515-.043 18.804-1.794 20.682-1.962 2.703-.241 5.138-.473 7.589-.86 1.125-.18 2.302-.41 3.599-.702.748-.169 3.559-.757 3.559-.757a45.215 45.215 0 0 0 3.521-.887 23.62 23.62 0 0 0 2.883-.993 7.03 7.03 0 0 0 2.335-1.628c.339-.37.595-.8.751-1.267a1.9 1.9 0 0 0 .109-.668 2.907 2.907 0 0 0-.091-.578Z"/><path fill="#ED8F23" d="M133.787 70.158c-1.093-4.909-7.984-.945-5.938 3.38 1.591 3.339 6.923 1.18 5.938-3.38Zm3.357 12.005c-3.311-2.325-5.811 4.65-2.378 4.196 2.625.7 4.325-2.84 2.378-4.196Zm29.413-9.197c-1.816 3.753 2.28 8.267 6.569 4.696 6.813-5.73-2.565-12.997-6.569-4.696Zm14.111-1.205c1.565.858 4.496-1.424 3.715-3.43-1.384-3.485-7.424 1.388-3.715 3.43Zm-2.061 11.65c5.405 3.453 7.843-6.936 2.585-6.456-2.725.242-5.195 4.786-2.585 6.456Zm-12.473 21.406c-2.639-.678-6.848 3.407-3.99 6.156 4.015 3.863 8.413-4.984 3.99-6.156Zm19.418 6.899c-1.008-3.152-6.496-4.249-8.12 2.226-1.489 5.862 10.431 5.043 8.12-2.226Zm-27.932 5.155c-3.022-1.616-5.127 3.521-2.585 4.785 2.82 1.399 5.616-3.194 2.585-4.785Zm-26.703-1.17c-2.614-.923-6.44 2.834-3.724 5.629 3.374 3.532 7.28-4.33 3.724-5.629Zm-8.202-4.734c-2.118-4.193-10.392 2.011-6.338 6.438 3.002 3.364 8.613-2.006 6.338-6.438Zm-26.908-2.229c-4.317-3.515-8.416 6.249-3.26 7.32 3.184.667 6.438-4.611 3.26-7.32Zm-19.153 11.428c.161 2.193 3.056 3.24 4.679.831 3.226-4.744-5.174-6.867-4.68-.831Zm3.01-1.423a.93.93 0 0 1 .118.01l-.118-.01Zm-9.184-7.83c-1.944-.992-4.307.322-5.038 2.956-1.57 3.975 2.086 6.821 5.154 5.057 2.736-1.602 3.171-6.337-.116-8.013Zm-16.492 3.156c-2.596-1.036-4.519 2.348-3.568 4.282 2.185 4.556 7.496-2.697 3.568-4.282Zm20.974-50.954c-2.06 0-3.696 3.69-2.686 5.293 3.2 5.034 8.104-5.293 2.686-5.293Zm-7.112.46c2.84-1.949 3.15-7.024-.523-7.024-5.643 0-4.59 10.503.523 7.024Zm19.475-1.936c-1.21-4.186-7.343-.804-5.996 3.68 1.064 3.537 7.4 1.142 5.996-3.68Z"/><path fill="#571C6D" d="M204.199 66.794c.148.094.309.17.479.223.315.075.643.09.964.046a3.11 3.11 0 0 0 1.396-.615c.379-.284.708-.624.974-1.006.198-.287.375-.586.529-.896a4.13 4.13 0 0 0 .288-.712c.113-.35.151-.717.112-1.08a1.364 1.364 0 0 0-.207-.56 1.457 1.457 0 0 0-.429-.434 2.102 2.102 0 0 0-.426-.207 2.055 2.055 0 0 0-.861-.07 4.646 4.646 0 0 0-2.301 1.113 3.592 3.592 0 0 0-1.327 2.328c-.024.26.044.52.193.739.005.22.062.437.169.633.107.196.259.366.447.498Zm1.912 6.502c.255-.116.493-.262.71-.434a5.466 5.466 0 0 0 1.527-2.069 4.63 4.63 0 0 0 .347-1.01 1.75 1.75 0 0 0 .054-.38 1.78 1.78 0 0 0-.126-.767 1.473 1.473 0 0 0-.362-.523 1.583 1.583 0 0 0-.559-.335 1.409 1.409 0 0 0-.576-.11c-.33.01-.657.072-.966.183a5.284 5.284 0 0 0-2.599 2.046 3.427 3.427 0 0 0-.582 1.373 2.32 2.32 0 0 0 .015.743c.069.288.208.556.406.785.022.03.045.058.071.084a1.599 1.599 0 0 0 .873.6c.315.073.642.092.964.055.28-.038.552-.12.803-.241Zm-7.793 7.108a3.758 3.758 0 0 0 1.287-1.756c.22-.74.348-1.5.381-2.268.043-.34.022-.686-.063-1.02a1.916 1.916 0 0 0-.71-1.012 1.582 1.582 0 0 0-.89-.277 2.437 2.437 0 0 0-1.083.25c-.522.283-.987.65-1.376 1.085-.42.459-.775.968-1.055 1.515a4.626 4.626 0 0 0-.584 1.871 2.11 2.11 0 0 0 .083 1.523 1.9 1.9 0 0 0 .844.76c.357.166.76.225 1.153.168a3.953 3.953 0 0 0 2.013-.84Zm18.441 3.33a4.396 4.396 0 0 0 1.762-.42 3.334 3.334 0 0 0 1.302-.897c.238-.28.362-.631.35-.99a1.465 1.465 0 0 0-.414-.968 1.935 1.935 0 0 0-.67-.433 2.027 2.027 0 0 0-.8-.134 5.101 5.101 0 0 0-2.117.577 1.32 1.32 0 0 0-.438.336c-.12.14-.206.301-.254.475a1.493 1.493 0 0 0-.317.565 1.448 1.448 0 0 0-.044.637c.079.355.285.674.584.902a1.73 1.73 0 0 0 1.056.35Zm-11.269.946a1.48 1.48 0 0 0 .001.231 1.357 1.357 0 0 0-.005.564c.037.138.08.274.132.407.079.12.154.237.236.356.123.144.276.263.449.35.276.157.582.26.901.305a5.39 5.39 0 0 0 1.542-.027 6.993 6.993 0 0 0 1.586-.448c.498-.191.95-.474 1.331-.832.373-.338.609-.789.665-1.274a1.62 1.62 0 0 0-.162-.82 1.725 1.725 0 0 0-.557-.648 3.146 3.146 0 0 0-1.866-.498c-.215 0-.433.01-.65.026-1.459.106-3.436.697-3.603 2.309Zm13.604.582a3.051 3.051 0 0 0-1.184-.41 2.789 2.789 0 0 0-.564-.05c-.242 0-.484.02-.714.036a4.661 4.661 0 0 0-2.355.79c-.074.052-.14.113-.197.182-.26.148-.482.348-.65.586a1.877 1.877 0 0 0-.324.792 1.518 1.518 0 0 0 .359 1.22c.139.134.29.258.45.37.223.13.466.232.719.3a4.803 4.803 0 0 0 3.226-.296 4.45 4.45 0 0 0 1.635-1.182c.146-.176.253-.378.313-.594.061-.216.074-.442.039-.663a1.754 1.754 0 0 0-.753-1.08Zm-20.979 6.264c.447-.03.889-.111 1.317-.24a3.43 3.43 0 0 0 1.684-.882c.164-.182.286-.394.356-.624.07-.23.087-.47.05-.706a2.17 2.17 0 0 0-.817-1.29 3.344 3.344 0 0 0-2.085-.65h-.052a4.945 4.945 0 0 0-2.185.43c-.349.167-.649.41-.877.71a1.738 1.738 0 0 0-.291.675 1.4 1.4 0 0 0-.276.536 1.346 1.346 0 0 0-.02.596c.043.226.138.44.277.628.14.188.32.345.53.46.382.192.799.313 1.23.357a6.41 6.41 0 0 0 1.159 0Zm10.804 9.595c.334.078.675.124 1.019.138a1.85 1.85 0 0 0 .578-.078c.107-.037.21-.075.318-.111.122-.073.237-.155.352-.24a1.45 1.45 0 0 0 .396-.582c.03-.13.054-.259.079-.392-.01-.135-.02-.273-.035-.412a1.461 1.461 0 0 0-.206-.499 2.719 2.719 0 0 0-.342-.452 4.458 4.458 0 0 0-.724-.614 4.416 4.416 0 0 0-1.765-.769 8.04 8.04 0 0 0-.286-.09 5.172 5.172 0 0 0-1.253-.17 1.9 1.9 0 0 0-1.297.48 1.481 1.481 0 0 0-.388.598 1.41 1.41 0 0 0-.057.7c.075.347.245.67.493.937.212.233.458.436.73.604.383.253.796.463 1.229.629a5.71 5.71 0 0 0 1.159.323Zm5.448 4a7.047 7.047 0 0 0-1.973-.952 12.675 12.675 0 0 0-1.694-.388 6.602 6.602 0 0 0-1.114-.11c-.06 0-.122.002-.183.004a2.155 2.155 0 0 0-.969.175 2.02 2.02 0 0 0-.769.583 1.412 1.412 0 0 0-.255.84c.008.242.062.479.162.701.069.158.156.308.26.449a5.377 5.377 0 0 0 2.367 1.76 7.198 7.198 0 0 0 2.689.868 3.35 3.35 0 0 0 1.846-.162c.316-.143.578-.373.753-.66.239-.424.296-.918.161-1.381a3.188 3.188 0 0 0-1.281-1.727Zm-13.806-6.693a4.881 4.881 0 0 0-1.36-.355 1.445 1.445 0 0 0-.175-.01c-.19.004-.379.025-.564.065a2.143 2.143 0 0 0-.916.461 1.149 1.149 0 0 0-.359.54 1.089 1.089 0 0 0-.001.637c.033.347.152.682.349.977.197.295.466.542.784.719a8.525 8.525 0 0 0 1.836.952c.267.095.544.163.827.202.2.036.404.053.608.051.313-.011.621-.081.905-.207.261-.129.477-.327.622-.569.148-.228.227-.489.23-.756a1.928 1.928 0 0 0-.198-.782 2.027 2.027 0 0 0-.507-.645 7.17 7.17 0 0 0-2.081-1.28Zm-52.15-29.483c.071.164.177.313.312.437.134.124.295.22.471.284 1.189.424 2.088-.753 2.593-1.584.311-.45.523-.954.622-1.483.033-.213.02-.43-.039-.638a1.553 1.553 0 0 0-.304-.572 1.547 1.547 0 0 0-.544-.387 1.621 1.621 0 0 0-.668-.128c-.058 0-.115.002-.173.007a2.9 2.9 0 0 0-1.782 1.066c-.252.3-.448.64-.578 1.003a2.99 2.99 0 0 0-.2 1.113c-.021.311.079.62.279.869l.011.013Zm-2.92 8.879a2.1 2.1 0 0 0 .925.088 3.54 3.54 0 0 0 .778-.203 3.104 3.104 0 0 0 1.258-.975c.3-.38.512-.816.622-1.279.21-.654.279-1.343.2-2.023a1.767 1.767 0 0 0-.504-.975 2.117 2.117 0 0 0-.66-.43 1.81 1.81 0 0 0-.655-.106c-.1 0-.201.007-.3.02-.48.075-.934.26-1.322.54a3.134 3.134 0 0 0-.886 1.13c-.042.079-.08.159-.112.24l-.019.034a3.46 3.46 0 0 0-.544 1.407c-.074.5-.036 1.008.113 1.493.099.235.249.449.439.627.191.18.417.32.667.412Zm6.126-.919a1.86 1.86 0 0 0-.212-.012 2.43 2.43 0 0 0-1.408.6 2.193 2.193 0 0 0-.714 1.29 2.88 2.88 0 0 0-.168.518c-.1.34-.091.7.027 1.036.118.335.339.629.635.844 1.199.698 2.515-.328 2.971-1.371.206-.468.298-.973.268-1.478a1.49 1.49 0 0 0-.429-.95 1.663 1.663 0 0 0-.97-.477Zm5.937 14.923a1.876 1.876 0 0 0-1.001-.277 2.322 2.322 0 0 0-1.241.37c-.266.172-.488.4-.65.665a2.73 2.73 0 0 0-.372 1.02.789.789 0 0 0-.011.252 1.75 1.75 0 0 0 .162 1.064c.171.297.44.533.766.674.325.14.69.178 1.04.106a2.468 2.468 0 0 0 1.469-.914c.685-.85.906-2.294-.162-2.96Zm-7.426 6.962a1.963 1.963 0 0 0-1.016-.275 2.696 2.696 0 0 0-1.725.682 3.621 3.621 0 0 0-.989 1.427c-.1.266-.155.545-.162.826-.008.192.017.384.074.568-.036.364.04.729.219 1.053.145.236.336.443.564.61.225.157.487.259.763.296.411.029.821-.052 1.186-.232.364-.18.668-.454.876-.788.234-.316.437-.652.606-1.003.13-.258.236-.525.319-.799a2.5 2.5 0 0 0 .092-1.183 1.668 1.668 0 0 0-.271-.671 1.786 1.786 0 0 0-.536-.51Zm21.037-7.667a1.507 1.507 0 0 0-.966-.32 1.667 1.667 0 0 0-.811.2 2.42 2.42 0 0 0-1.117 1.385 1.29 1.29 0 0 0-.063.325 1.62 1.62 0 0 0-.196.594c-.034.322.021.647.162.942.147.308.416.55.749.674.364.135.77.13 1.13-.013a2.642 2.642 0 0 0 1.136-.976c.252-.377.429-.795.52-1.233.052-.215.06-.437.024-.655a1.55 1.55 0 0 0-.568-.923Zm12.312-2.104a1.474 1.474 0 0 0-.468-.077 1.963 1.963 0 0 0-1.275.53 3.108 3.108 0 0 0-.857 1.155c-.009.022-.016.045-.024.067a3.822 3.822 0 0 0-.244.514 2.205 2.205 0 0 0-.123 1.04c.034.179.105.35.21.503.105.152.241.284.401.386a1.493 1.493 0 0 0 1.102.204c.343-.07.663-.215.935-.424.246-.174.464-.381.647-.614a2.971 2.971 0 0 0 .724-1.681 1.505 1.505 0 0 0-.235-.961 1.642 1.642 0 0 0-.793-.642Zm-70.172 5.413c-.133-.097-.264-.194-.406-.282a2.137 2.137 0 0 0-.945-.225 1.087 1.087 0 0 0-.153-.01 5.368 5.368 0 0 0-.699.088c-.256.037-.509.09-.758.157a5.175 5.175 0 0 0-1.777.91 2.673 2.673 0 0 0-.926 1.297 1.317 1.317 0 0 0-.06.329 1.657 1.657 0 0 0 .108 1.293c.149.285.378.526.663.697.42.237.899.365 1.389.369a3.155 3.155 0 0 0 1.518-.37 4.64 4.64 0 0 0 1.209-.942 7.71 7.71 0 0 0 .979-1.26 1.81 1.81 0 0 0 .269-.68c.078-.34.03-.695-.136-1.006a2.779 2.779 0 0 0-.275-.365Zm4.119 2.715c-.02 0-.039.002-.059.003-.326.017-.643.11-.922.27-.2.053-.393.127-.575.22a1.646 1.646 0 0 0-.613.586 1.393 1.393 0 0 0-.19.748 1.124 1.124 0 0 0 .089.559c.063.143.156.274.272.383.232.211.537.334.858.347l.043.009c.283.046.572.041.853-.014.329-.089.631-.25.881-.472.217-.154.393-.354.514-.585.12-.23.182-.483.18-.74a1.295 1.295 0 0 0-.396-.904 1.485 1.485 0 0 0-.935-.41Zm-18.023-1.262c-.33.001-.66.044-.979.127a3.971 3.971 0 0 0-1.282.642 2.39 2.39 0 0 0-.688.661c-.18.262-.302.555-.36.862-.023.033-.046.069-.068.103a1.486 1.486 0 0 0-.206 1.29c.066.216.18.416.334.587.155.172.346.31.562.405a2.915 2.915 0 0 0 1.6.23 4.647 4.647 0 0 0 1.572-.452c.229-.133.444-.286.642-.458.222-.188.418-.402.582-.637.336-.427.51-.947.494-1.478a1.94 1.94 0 0 0-.612-1.33 2.198 2.198 0 0 0-.736-.429 2.294 2.294 0 0 0-.855-.123Zm-10.99 1.568c-.343.002-.68.09-.975.256a2.76 2.76 0 0 0-1.116 1.167 2.067 2.067 0 0 0-.068.113c-.186.32-.26.688-.211 1.05a1.7 1.7 0 0 0 .484.968 1.6 1.6 0 0 0 .956.365c.354.015.703-.084.988-.283.48-.321.888-.727 1.204-1.195.217-.297.324-.654.305-1.014a1.599 1.599 0 0 0-.408-.982 1.635 1.635 0 0 0-.532-.332 1.709 1.709 0 0 0-.627-.113Zm-7.037-.126a1.52 1.52 0 0 0-.986-.329c-.11 0-.22.01-.327.026a2.527 2.527 0 0 0-1.162.564c-.224.144-.439.305-.639.456-.487.382-.858.88-1.073 1.442-.12.323-.19.66-.21 1.002a2.32 2.32 0 0 0 .274 1.103c.191.338.484.615.843.795.382.202.832.26 1.258.162.359-.094.687-.272.954-.517.302-.214.566-.471.782-.762a5.12 5.12 0 0 0 .613-1.013 2.416 2.416 0 0 0 .288-2.309 1.785 1.785 0 0 0-.615-.62Zm-17.452-1.049h-.044a2.847 2.847 0 0 0-1.6.72 1.794 1.794 0 0 0-.575.752 1.957 1.957 0 0 0-.06.143l-.011.033a1.49 1.49 0 0 0-.082.86c.058.287.2.554.41.77.242.216.55.354.881.395.33.04.666-.018.96-.167a2.965 2.965 0 0 0 1.159-.957c.11-.166.197-.344.26-.53.08-.221.125-.451.132-.684 0-.177-.039-.35-.11-.513a1.341 1.341 0 0 0-.312-.434 1.431 1.431 0 0 0-.463-.289 1.496 1.496 0 0 0-.545-.1Zm-23.27 1.327a1.254 1.254 0 0 0-.342-.046 1.709 1.709 0 0 0-.77.189c-.443.24-.798.603-1.017 1.04a1.99 1.99 0 0 0-.264.905c-.003.132.011.265.042.395-.009.304.089.603.279.85.19.247.46.428.77.514.296.055.603.031.886-.069.283-.1.53-.274.714-.5.322-.353.568-.762.724-1.205.072-.212.111-.433.118-.656a1.304 1.304 0 0 0-.095-.553 1.37 1.37 0 0 0-.32-.472 1.92 1.92 0 0 0-.725-.392Zm91.944-3.745-.118.002a3.42 3.42 0 0 0-1.268.315 2.46 2.46 0 0 0-.989.909 2.62 2.62 0 0 0-.352 1.233 1.94 1.94 0 0 0-.001.365c-.017.27.038.54.159.785l.004.015a1.2 1.2 0 0 0 .33.531c.157.148.352.255.565.31.1.044.203.078.309.104.448.09.915.027 1.32-.175a4.639 4.639 0 0 0 1.612-1.404 1.87 1.87 0 0 0 .514-.969 1.805 1.805 0 0 0-.128-1.076 2.073 2.073 0 0 0-.838-.732 2.227 2.227 0 0 0-1.119-.213Zm13.817 21.243c.297-.348.47-.777.493-1.224 0-.311-.112-.614-.317-.858a1.48 1.48 0 0 0-.814-.486 1.225 1.225 0 0 0-.496-.111c-.116 0-.231.019-.34.055a3.739 3.739 0 0 0-.387.144l-.337.244c-.181.157-.33.343-.441.55a2.016 2.016 0 0 0-.363 1.598c.093.295.288.551.553.728.266.178.586.266.911.251.312-.027.612-.121.879-.276.267-.155.492-.365.659-.615Zm1.051 2.969a1.705 1.705 0 0 0-.729-.19 1.855 1.855 0 0 0-.98.274 3.843 3.843 0 0 0-1.228 1.384 7.035 7.035 0 0 0-.411.864 2.198 2.198 0 0 0-.058 1.294c.008.098.016.195.033.291.051.374.246.717.549.964.157.15.352.258.567.315.177.054.362.083.548.087.256-.006.507-.067.734-.179a2.81 2.81 0 0 0 .49-.32c.16-.15.297-.321.406-.508.106-.161.197-.331.27-.507.184-.394.329-.804.431-1.224.072-.314.111-.642.151-.966a1.922 1.922 0 0 0-.235-1.076 1.564 1.564 0 0 0-.538-.503Z"/><path fill="#fff" d="M110.633 76.348c-1.242-8.63-12.307-11.612-17.67-8.239-7.822 4.962-8.923 17.528.86 20.69a13.27 13.27 0 0 0 6.29.579 12.955 12.955 0 0 0 5.794-2.384 11.953 11.953 0 0 0 3.829-4.744 11.239 11.239 0 0 0 .897-5.902Zm-48.788-4.976c-5.667-12.09-22.219-2.64-20.416 8.458 2.562 15.846 28.102 7.803 20.416-8.458Z"/><path fill="#05103A" d="M95.349 66.993c-7.409 0-13.404 14.805-6.175 18.906 8.916 5.024 17.271-18.906 6.174-18.906Zm-43.174-1.471c-7.005 0-13.936 10.149-10.501 17.418 2.791 5.902 10.771 2.194 13.581-4.068 2.357-5.256 3.22-13.35-3.08-13.35Zm17.348 8.965c-1.04.366-2.669 6.541 1.047 9.325 6.043 4.525 10.634-8.678 7.891-9.09-2.276-.359.271 3.764-3.77 7.537-1.748 1.439-3.782.162-4.388-2.007-.642-2.994 1.654-6.623-.78-5.765Zm-13.067 50.068c-.55 0-6.57 3.219-10.725 9.574-6.972 10.581-4.726 13.24-6.071 12.95-2.003-.326-6.632-.96-6.506-.942-2.74-.379-3.13 1.652-1.167 2.336 16.29 5.768 9.96 2.558 16.037-9.372l.013-.13c5.975-10.616 11.894-14.416 8.42-14.416Zm32.723 1.344c-2.656 0-2.927 12.107-2.945 14.262-.157 18.143 6.488 10.612-4.105 16.977-2.595 1.528-1.967 2.862-.174 2.862 1.88 0 4.479-1.166 6.49-1.857 7.096-2.435 4.934-.601 2.428-15.837.126-.012-.78-15.801-.84-15.92a.92.92 0 0 0-.354-.357.997.997 0 0 0-.5-.13Zm51.364.417c-2.931-.935-10.231 15.433-5.413 26.373-9.798 4.675-11.505 5.247-9.884 6.385.879.619 14.08-1.722 13.695-5.139-.271-2.347-2.352-4.836-1.276-12.831 1.918-14.259 5.034-14.118 2.878-14.788Zm-5.38 27.465-.024.015c.107-.074.14-.095.024-.015Zm49.549-9.16c-.173-.566-9.058-4.661-14.897-10.778-5.028-5.434-4.87-11.928-6.762-9.599-2.424 1.262 3.043 19.855 18.011 22.455a60.415 60.415 0 0 0-.19 6.382c.099 1.736 1.491 1.644 2.008.794.698-1.17 2.134-8.337 1.83-9.254Zm-5.487-3.363-.061-.038.061.038ZM105.5 100.481c4.103.183 12.635 18.715 13.962 19.45 3.925 2.179 5.963 7.294-1.055 2.929.758 5.883-2.214 6.54-3.231.322-3.411 3.455-4.846 1.087-3.198-1.223 2.372-3.411 2.518-1.143 1.311-3.914-7.093-16.228-10.788-17.736-7.789-17.564Z"/><path fill="#65C3D6" d="M52.321 44.652a2.66 2.66 0 0 0 1.563-.506 2.41 2.41 0 0 0 .91-1.3c.517-1.586-1.723-2.86-3.235-1.386-.9.876-.832 3.054.762 3.192Z"/><path fill="#E75788" d="M247.455 139.543c.379 1.615 2.424 2.236 4.117 1.021 2.109-1.489 1.71-4.239-.079-4.662a3.397 3.397 0 0 0-1.673-.044 3.27 3.27 0 0 0-1.469.756c-.41.37-.709.836-.867 1.35a2.873 2.873 0 0 0-.029 1.579Z"/><path fill="#49A2B7" d="M239.724 93.413c2.466-1.665 1.513-5.947-1.655-4.667-2.127.866-3.086 4.74-.093 5.063a2.656 2.656 0 0 0 1.748-.396Z"/></g><defs><clipPath id="a"><path fill="#fff" d="M0 0h253v160H0z"/></clipPath></defs></svg>