<svg xmlns="http://www.w3.org/2000/svg" width="173" height="125" fill="none"><g clip-path="url(#a)"><path fill="#ACE8EA" d="M149.475 73.663c3.17 6.646.039 15.2-5.206 20.368a20.8 20.8 0 0 1-20.443 4.904c-7.924-2.513-13.511-9.547-17.799-16.67-1.967-3.268-3.826-7.146-2.604-10.76a3.501 3.501 0 0 1 1.48-2.017c2.197-1.215 4.485 1.551 5.186 3.962a24.861 24.861 0 0 1-12.772 28.448c-5.359 2.548-11.459 3.027-17.392 2.976a42.881 42.881 0 0 1-16.037-2.607C57.21 99.513 51.9 94.13 47.896 88.12a11.288 11.288 0 0 1-2.311-5.708c-.063-2.08 1.257-4.341 3.316-4.637 3.243-.465 5.078 3.677 5.19 6.95a28.595 28.595 0 0 1-15.19 25.833 15.7 15.7 0 0 1-8.866 1.994c-4.868-.58-8.699-4.311-11.96-7.972-5.27-5.918-10.385-13.022-9.83-20.927a16.497 16.497 0 0 1 3.886-9.49 8.96 8.96 0 0 1 6.519-3.537c2.552.012 5.146 2.185 4.888 4.724a4.964 4.964 0 0 1-4.4 3.987 12.1 12.1 0 0 1-6.206-1.215C7.015 75.669 1.111 71.279.132 64.949c-.79-5.114 2.027-10.345 6.217-13.382a24.818 24.818 0 0 1 14.702-4.111c2.903-.183 5.79.56 8.245 2.122 2.318 1.723 3.585 5.128 2.122 7.618-8.84-1.937-15.055-10.897-15.514-19.934-.459-9.038 3.982-17.804 10.273-24.31A42.105 42.105 0 0 1 49.207.509 34.503 34.503 0 0 1 74.57 6.014c7.103 5.032 11.791 12.8 15.287 20.773 2.507 5.718 4.537 12.025 3.241 18.134a5.914 5.914 0 0 1-5.838-2.872 10.566 10.566 0 0 1-1.245-6.673c.762-7.56 6.415-13.943 13.114-17.532 12.256-6.566 28.387-4.682 39.1 4.182a38.678 38.678 0 0 1 12.519 37.603 5.251 5.251 0 0 1-2.011 3.572c-2.211 1.293-5.105-1.354-4.838-3.901.268-2.547 2.529-4.438 4.868-5.484a17.451 17.451 0 0 1 19.744 4.537 18.505 18.505 0 0 1 2.109 20.313 19.7 19.7 0 0 1-17.975 10.017 13.76 13.76 0 0 1-9.403-3.883 8.886 8.886 0 0 1-1.645-9.617c1.236-2.67 5.919-5.627 7.878-1.52Z"/><path fill="#282827" d="M60.574 50.388c3.594-2.802 7.658-4.396 11.593-6.562a.673.673 0 0 0-.337-1.245c-4.736.417-8.933 3.63-11.858 7.206a.425.425 0 0 0 .602.601Zm32.049-7.781c1.813.525 3.378 1.955 4.973 2.925a49.393 49.393 0 0 0 4.695 2.783c.349.163.844-.197.582-.582a14.862 14.862 0 0 0-10.105-6.2c-.628-.047-.723.907-.145 1.074Z"/><path fill="#90DDDD" d="M60.76 81.685a8.77 8.77 0 1 0 0-17.54 8.77 8.77 0 0 0 0 17.54Zm42.531-2.031a8.77 8.77 0 1 0 0-17.54 8.77 8.77 0 0 0 0 17.54Z"/><path fill="#282827" d="M64.705 62.103c1.373-1.59 1.983-3.39 4.066-4.292 3.068-1.327 4.224 1.099 6.792 1.958.476.16.822-.325.747-.747-.577-3.236-4.93-4.782-7.784-3.847-2.512.823-5.35 3.924-4.633 6.713a.49.49 0 0 0 .812.215Zm34.213-.214c.717-2.787-2.126-5.892-4.633-6.713-2.858-.937-7.207.61-7.784 3.846-.076.423.27.907.747.747 2.57-.86 3.693-3.334 6.791-1.957 2.067.918 2.69 2.699 4.067 4.291a.49.49 0 0 0 .812-.214Zm-23.327 2.257a15.41 15.41 0 0 0 2.63 1.428c.633.271 1.288.489 1.957.65 2.497.566 5.115.185 7.347-1.069a9.788 9.788 0 0 0 1.136-.747s2.001 12.86-6.535 12.86-6.402-12.376-6.402-12.376"/><path fill="#EA8888" d="M76.553 73.77a5.707 5.707 0 0 0 5.573 3.498c4.111 0 5.775-2.983 6.399-6.075a22.364 22.364 0 0 0-11.972 2.578Z"/><path fill="#ACE8EA" d="M72.042 96.983c.161 3.767.456 7.482.772 11.237.274 3.254.106 6.658.993 9.802.122.434.85.492.937 0 1.164-6.525-.62-14.716-2.105-21.12a.305.305 0 0 0-.597.081Z"/><path fill="#ACE8EA" d="M73.72 117.321a46.301 46.301 0 0 0-12.229 4.844c-.236.104-.43.283-.552.51-.257.647.664 1.1 1.358 1.155 2.604.204 5.22-.212 7.632-1.216 1.948-.812 3.942-2.354 3.965-4.464"/><path fill="#ACE8EA" d="M73.72 117.017a32.842 32.842 0 0 0-11.88 3.877c-1.713.932-2.858 2.881-.342 3.758 2.787.972 7.046-.266 9.53-1.563 1.588-.828 4.7-3.22 3.124-5.197a.375.375 0 0 0-.515 0c-.877.696-.534 1.04-1.38 2.105a6.193 6.193 0 0 1-2.131 1.548c-1.682.837-4.707 1.851-6.53 1.377-1.578-.409.027-.872.855-1.293a45.822 45.822 0 0 1 3.215-1.479c2.043-.841 4.072-1.746 6.135-2.536.291-.111.287-.642-.08-.597Zm15.748-20.114c-1.486 6.403-3.269 14.594-2.105 21.119.088.491.815.434.938 0 .882-3.131.717-6.563.992-9.802.318-3.752.61-7.473.772-11.237a.305.305 0 0 0-.597-.08Z"/><path fill="#ACE8EA" d="M88.386 117.321a46.306 46.306 0 0 1 12.23 4.844c.235.104.43.283.552.51.257.647-.664 1.1-1.358 1.155a16.506 16.506 0 0 1-7.632-1.216c-1.948-.812-3.942-2.354-3.965-4.464"/><path fill="#ACE8EA" d="M88.305 117.614c2.064.79 4.093 1.695 6.136 2.536 1.09.449 2.163.946 3.215 1.479.829.42 2.433.884.855 1.293-1.776.461-4.906-.569-6.53-1.377a6.192 6.192 0 0 1-2.131-1.548c-.846-1.065-.503-1.409-1.38-2.105a.37.37 0 0 0-.515 0c-1.578 1.981 1.537 4.36 3.123 5.197 2.44 1.288 6.773 2.525 9.531 1.563 2.515-.877 1.358-2.816-.342-3.758a32.357 32.357 0 0 0-11.88-3.877c-.365-.045-.375.485-.082.597Z"/></g><defs><clipPath id="a"><path fill="#fff" d="M0 0h172.721v125H0z"/></clipPath></defs></svg>