<svg xmlns="http://www.w3.org/2000/svg" width="154" height="186" fill="none"><g clip-path="url(#a)"><path fill="#05103A" d="M79.811 160.451c-.977.614-1.002 1.879-2.996 5.176-5.05 8.435-12.883 10.236-13.137 11.985-.781 5.435 3.084 12.197 2.967 2.03-.024-1.799-.058.01 6.316-4.575 8.591-6.193 10.433-16.881 6.85-14.616Zm25.732-3.503c-1.731.291-.171 6.615-4.659 13.758-4.767 7.668-7.367 5.342-2.886 13.509 1.143 2.06 2.516 1.325 2.53-.404a23.25 23.25 0 0 0-1.12-4.386c-.3-1.03-.466-.429.367-1.372 9.288-10.482 8.199-21.514 5.768-21.105Z"/><path fill="#FFB24F" d="M100.094 78.079c-.044-.095-10.637-25.989-16.537-33.208-2.37-2.932-3.49-2.089-5.14.238-3.283 4.632-7.014 12.131-9.325 17.313-12.383 27.76-6.703 22.519-6.512 21.847.277-.968-.03-.579.753.008 4.923 3.544 38.265-1.792 36.761-6.198Z"/><path fill="#49A2B7" d="M80.374 30.024a2.601 2.601 0 0 0-2.2 1.641c-2.081 3.654-.226 5.592-1.959 3.79-3.943-4.176-6.553 1.26-.45 6.77 5.28 4.737 7.81.286 7.056.968 1.606-1.453 9.553-10.127 7.153-11.965-2.613-2.018-8.901 5.901-7.53 4.387.59-1.458.344-5.591-2.07-5.591ZM92.133 60.11c-1.979-4.146-4.073-8.251-5.97-11.403-2.858.455-8.68 1.66-11.346 2.22a158.905 158.905 0 0 0-7.012 14.408c6.766-.732 24.22-5.2 24.328-5.225Zm7.961 17.969c-.022-.047-2.646-6.458-6.004-13.784-4.114 1.017-25.987 7.098-29.536 8.76-2.54 6.357-3.366 9.492-3.44 10.933 1.945.378 39.213-5.094 38.98-5.91Z"/><path fill="#05103A" d="M131.222 76.779c-1.015 0-1.676 3.12-1.971 4.092-4.504 14.734-13.285 28.724-14.55 31.445-.633 1.426.984 4.795 8.659-8.174 3.872-6.643 12.787-27.363 7.862-27.363Z"/><path fill="#E37C9C" d="M113.288 74.473c-8.031 0-57.315 5.611-70.542 10.204-2.96 1.012-2.042 4.026-.5 11.227 16.225 75.331 12.989 69.527 21.626 68.63 7.577-.786 60.18-5.542 60.292-11.521.001-.095-6.312-62.69-6.323-62.787-1.986-16.573-.538-15.753-4.553-15.753Z"/><path fill="#fff" d="M71.043 100.491c-5.461 0-9.87 7.838-6.383 14.269a6.625 6.625 0 0 0 1.885 2.216 6.544 6.544 0 0 0 2.642 1.184 6.493 6.493 0 0 0 2.889-.078 6.541 6.541 0 0 0 2.576-1.324c5.768-4.578 4.028-16.267-3.61-16.267Zm27.758-5.234c-8.23 0-10.298 11.195-5.94 15.78 7.704 8.104 18.607-10.537 8.063-15.312a5.127 5.127 0 0 0-2.123-.468Z"/><path fill="#E75788" d="M116.758 16.785c-1.055.087-4.276.747-3.925 1.834.38 1.108 1.088-.246 3.894-.56 1.035-.115 1.464.047 1.58-.549.186-.919-.998-.77-1.549-.725Z"/><path fill="#FFB24F" d="M83.629 93.61c-2.038-.021-2.115 4.929-.06 4.929 1.836-.006 1.967-4.91.06-4.93Zm5.348-5.147c-1.504.526-2.286 3.654-1.072 4.987 2.821 3.083 5.102-6.393 1.072-4.987Zm-6.08-2.81c-1.06.295-.907 3.142.047 3.532.724.293 1.793-.114 2.096-1.658.43-2.25-1.32-2.805-2.143-1.874Zm-5.11 4.998c-2.296.395-2.897 5.797-.27 5.376 2.533.136 2.72-5.797.27-5.376Z"/><path fill="#FE94BB" d="M112.874 108.241c-1.384.37-2.508 2.928-1.999 4.543.251 2.248 2.537 2.706 3.984.496 1.727-2.628.317-5.654-1.985-5.039ZM66.17 122.554c1.385.37 2.509 2.928 2 4.543-.25 2.248-2.537 2.705-3.984.496-1.727-2.628-.316-5.654 1.985-5.039Z"/><path fill="#E57E9E" d="M58.673 117.562c-3.826 1.267-2.188 9.523 2.047 7.153 2.98-1.693 1.416-8.3-2.047-7.153Z"/><path fill="#9E4D69" d="M125.441 49.655c-.745 12.717-3.043 24.807 3.969 35.41 1.286 1.94 2.697 3.523 3.978 5.528 7.4 11.954 2.966 22.815 7.44 30.42 3.057 5.154 7.172 7.161 8.633 11.764 2.402 8.614-7.033 14.387-2.89 24.657a.77.77 0 0 0 1.014.372.767.767 0 0 0 .384-1.008c-3.197-7.883 3.284-14.576 3.513-20.336.281-6.799-4.763-10.101-7.903-14.087-4.025-5.163-3.309-8.247-3.733-14.368-1.069-15.523-6.563-19.706-9.57-24.407-8.744-14.246-.983-34.296-3.987-34.621a.771.771 0 0 0-.848.676Zm4.736 33.788.094.148-.094-.148Z"/><path fill="#8CBFCC" d="M124.713 48.297c-1.278 0-2.251 6.01-2.459 7.284-.364 2.2 1.774 1.363 3.582.949.898-.168 2.546 0 3.126-.807.883-1.218-2.316-7.426-4.249-7.426Z"/><path fill="#8CBFCC" d="M142.966 11.12C137.81 1.938 133.148.568 123.969.046c-21.819-1.308-35.058 26.148-21.681 43.013 6.407 8.069 21.541 11.626 32.887 3.017 6.65-5.057 14.836-22.365 7.791-34.954Z"/><path fill="#fff" d="M136.203 29.26c7.857-19.185-.029-27.809-6.782-7.53-5.754 17.279 1.01 21.625 6.782 7.53Z" opacity=".5"/><path fill="#05103A" d="M86.583 105.865c-.467.344.288 9.376-2.968 6.393-1.061-1.232-.734-5.192-1.231-5.588-1.963-1.624-1.402 6.159 1.268 7.253 3.771 1.542 4.061-3.357 4.058-7.377a.713.713 0 0 0-.737-.821.715.715 0 0 0-.39.14Zm9.732-10.608c-3.44 0-6.114 4.718-6.624 8.237-.743 5.137 2.636 10.255 6.451 7.938 3.517-2.12 4.052-16.175.173-16.175Zm-27.634 5.234c-1.755 0-5.066 3.731-5.256 9.245-.185 4.639 3.243 8.654 6.426 5.09 2.69-3.029 2.836-14.335-1.17-14.335Zm61.928-29.328c-3.249 0-8.011 2.177-5.585 3.19 1.045.411 2.039-.382.751.556a2.18 2.18 0 0 0-1.087 1.908c.219 1.605 3.86.143 3.543.238-.779.76-2.092 2.124-1.598 3.023.829 1.519 4.216-.746 3.929-.597 4.97-2.569 3.433-8.318.047-8.318Z"/><path fill="#4BA846" d="M24.127 89.767c-1.927 0-5.987 9.449-1.218 19.277 1.525 3.218 3 1.112 2.357.165 3.503-9.57.671-19.442-1.14-19.442Zm11.905 3.654c-4.5 4.134-6.36 14.94-3.928 14.982 4.18.058 8.708-19.372 3.928-14.982Zm-34.674 3.93c1.162 0-3.625-1.285.066 6.511 2.182 4.543 10.732 9.045 9.226 4.486-1.454-4.279-5.645-10.947-9.292-10.997Z"/><path fill="#05103A" d="M27.092 128.935a.728.728 0 0 0-.446.73.723.723 0 0 0 .56.647c5.92.601 3.776 1.236 7.998 1.335a20.33 20.33 0 0 0 15.802-7.311c1.508-1.789.182-2.856-.62-2.342-1.206.455-5.153 4.964-15.315 6.257-10.153 1.327-6.909.281-7.979.684Z"/><path fill="#FCBF71" d="M35.164 107.385c-3.741 0-18.63 4.242-22.287 5.328-4.201 1.246-4.038 2.164.846 11.272 2.13 3.969 16.358 29.837 20.286 27.474 3.711-2.248 4.195-40.936 4.217-40.596-.143-2.283-.683-3.478-3.062-3.478Z"/><path fill="#E75788" d="M17.723 104.29c1.823-4.068-.93-6.358-3.018-4.767-2.248 1.725-1.822 5.515-2.3 4.652-3.387-6.124-8.079-2.153-5.258 3.619.048.097.118.113-.239.139-7.752.487-6.045 8.198 1.548 6.672-.396.31-.968 4.45.82 5.849 1.913 1.575 4.922-1.749 6.107-3.954.62-1.194 1.142 1.269 4.247.969a2.317 2.317 0 0 0 1.689-1.069 2.336 2.336 0 0 0 .24-1.985c-.85-3.967-2.772-4.065-1.885-4.467 6.713-3.045 3.43-7.504-1.95-5.658Z"/><path fill="#56AED9" d="M32.343 99.99c-2.573 0-3.513 4.472-2.984 7.076-3.893-.676-6.596 3.391-3.066 5.512 3.19 1.927 2.622-.581.393 3.445-2.098 3.798.727 6.448 4.335 3.607 2.48-1.942 1.555-2.701 1.973-.61 1.133 5.507 5.157 4.032 5.724-.119.532-3.917-.867-3.202.97-3.202 5.121 0 6.247-5.056.029-6.467.642-1.04 1.673-1.758 2.215-3.26.728-1.946-.182-4.113-3.297-3.541-4.637.854-2.253 3.933-3.91-.373-.441-1.135-1.168-2.069-2.382-2.069Z"/><path fill="#FFB24F" d="M12.684 107.65c-1.695.768-1.604 4.929.994 4.089 2.43-.78 1.221-5.094-.995-4.089Zm.978 1.588c-.02.013-.04.026-.06.041a.6.6 0 0 1 .06-.041Z"/><path fill="#ED8F23" d="M33.028 109.934c-2.248 3.265 3.614 4.817 2.812.494a1.505 1.505 0 0 0-1.227-1.265 1.5 1.5 0 0 0-1.584.771Z"/><path fill="#05103A" d="M24.079 130.953a1.123 1.123 0 0 0-1.354-.888c-2.022.218-2.312 1.292-.402-.798 1.191-1.315.374-3.121-2.748-.824 2.594-2.494.926-3.573-.786-2.389-4.207 2.889-3.35 6.387-.681 7.644 1.81.872 6.35-1.038 5.97-2.745Z"/><path fill="#FFB24F" d="M45.499 96.233c20.958-18.916 18.12-16.095 10.657-14.714a141.047 141.047 0 0 0-12.942 11.638c-1.52 1.65-1.308 1.156-.968 2.748.701 3.254-.068 3.31 3.253.328Z"/><path fill="#fff" d="M80.36 78.6c.65-1.11 1.108-.97-4.8-.151-7.711 5.945-29.377 26.094-31.08 27.888.368 1.726.723 3.398 1.068 5.025 9.926-7.46 34.61-32.417 34.811-32.761ZM64.677 90.162c-.164.154-.215.19 0 0Z"/><path fill="#FFB24F" d="M120.096 112.583c-2.214 1.343-52.892 32.361-64.904 43.606.293 1.145.569 2.144.833 3.019 10.587-5.857 54.489-35.651 64.348-43.874l-.277-2.751Z"/><path fill="#fff" d="m121.832 129.811-.344-3.42c-7.779 4.18-37.308 23.278-50.788 36.564-1.36 1.314-1.176 1.033 4.246.456.097-.064 46.788-33.524 46.886-33.6Z"/><path fill="#FFB24F" d="M122.807 139.484c-8.424 4.363-26.238 20.679-26.434 21.304 1.493-.213 2.977-.434 4.438-.662 5.477-3.585 17.063-11.985 22.361-17.013l-.365-3.629Zm-3.189 4.48c-.682.533-.723.508 0 0Z"/></g><defs><clipPath id="a"><path fill="#fff" d="M0 0h153.542v185.465H0z"/></clipPath></defs></svg>