<svg xmlns="http://www.w3.org/2000/svg" width="79" height="38" fill="none"><path fill="#302041" d="M26.891 30v-3.78h1.215c.81 0 1.458-.225 1.944-.675.504-.468.756-1.08.756-1.836V9.885h4.185V23.52c0 1.296-.279 2.43-.837 3.402-.558.972-1.359 1.728-2.403 2.268-1.026.54-2.241.81-3.645.81h-1.215Zm17.266.324c-1.458 0-2.79-.333-3.996-.999a7.847 7.847 0 0 1-2.862-2.727c-.702-1.17-1.053-2.493-1.053-3.969 0-1.494.351-2.817 1.053-3.969a7.847 7.847 0 0 1 2.862-2.727c1.206-.666 2.538-.999 3.996-.999 1.458 0 2.781.333 3.97.999a7.635 7.635 0 0 1 2.834 2.727c.72 1.152 1.08 2.475 1.08 3.969 0 1.476-.36 2.799-1.08 3.969a7.635 7.635 0 0 1-2.835 2.727c-1.188.666-2.51.999-3.969.999Zm0-3.645c.738 0 1.377-.171 1.917-.513.558-.342.99-.819 1.296-1.431.324-.612.486-1.314.486-2.106 0-.792-.162-1.485-.486-2.079a3.445 3.445 0 0 0-1.296-1.431c-.54-.36-1.179-.54-1.917-.54s-1.386.18-1.944.54a3.631 3.631 0 0 0-1.323 1.431c-.306.594-.459 1.287-.459 2.079 0 .792.153 1.494.46 2.106a3.631 3.631 0 0 0 1.322 1.431c.558.342 1.206.513 1.944.513ZM53.077 30V15.258h4.05V30h-4.05Zm0-16.065v-4.05h4.05v4.05h-4.05ZM58.74 30V9.561h4.05V30h-4.05Zm7.96 5.94c-.433 0-.856-.036-1.27-.108a3.623 3.623 0 0 1-1.053-.351V32.16c.252.072.55.135.891.189.342.054.657.081.945.081.792 0 1.36-.189 1.701-.567.342-.36.621-.774.837-1.242l1-2.295-.055 3.375-6.48-16.443h4.347l4.293 11.691h-1.62l4.293-11.691h4.347l-6.318 16.119c-.396 1.008-.882 1.854-1.458 2.538-.576.684-1.233 1.188-1.97 1.512-.72.342-1.53.513-2.43.513Z"/><mask id="a" width="37" height="37" x="1" y="1" maskUnits="userSpaceOnUse" style="mask-type:luminance"><path fill="#fff" d="M37.044 1H1v36.044h36.044V1Z"/></mask><g fill-rule="evenodd" clip-rule="evenodd" mask="url(#a)"><path fill="#F27696" d="M37.011 16.747c-.188 1.052-1.228 2.287-2.45 3.746a22.974 22.974 0 0 1-5.153 4.525 80.38 80.38 0 0 1 0 2.544c-.1 5.552-.15 8.328-1.243 9.142-1.772 1.324-6.582-1.34-11.737-5.938a68.465 68.465 0 0 0-4.868 3.865c-1.314 1.149-2.07 1.904-3.052 1.79-.603-.067-1.102-.44-1.5-.901-.44-.506-.761-1.12-.982-1.547-1.906-3.71-1.05-8.038-.38-10.369a16.585 16.585 0 0 1-2.769-2.828c-1.19-1.552-2.138-2.784-1.812-3.958.17-.61.676-1.182 2.958-2.17A29.853 29.853 0 0 1 10.7 12.67a26.757 26.757 0 0 1 3.15-4.994C16.4 4.48 21.137.074 23.109 1.171c.787.44.63 1.474 1.145 4.808a54.03 54.03 0 0 0 1.526 6.88 80.32 80.32 0 0 1 4.675.755c5.884 1.126 6.348 1.888 6.49 2.262.105.279.127.58.066.871Z"/><path fill="#2F1D41" d="m11.068 25.722-.541-.185a2.657 2.657 0 0 1 1.762-1.685l.167.54c-.26.078-.503.204-.715.373-.31.25-.543.582-.673.957Z"/><path fill="#2F1D41" d="M14.529 27.7c-.18 0-.36-.016-.537-.047-1.32-.234-2.439-1.35-2.85-2.843l.552-.149c.354 1.284 1.295 2.24 2.399 2.435.65.115 1.229-.054 1.599-.216l.232.518a3.497 3.497 0 0 1-1.395.301Z"/><path fill="#fff" d="M26.063 19.347c-.415 1.52-1.46 2.686-2.729 3.229a3.965 3.965 0 0 1-2.608.208c-2.264-.605-3.547-3.119-2.862-5.622.68-2.498 3.072-4.037 5.336-3.435 1.165.308 2.07 1.126 2.58 2.186.483 1.001.615 2.22.283 3.434Z"/><path fill="#2F1D41" d="M26.063 19.345c-.415 1.52-1.46 2.687-2.729 3.23a5.414 5.414 0 0 1-1.962-1.246c-.442-.442-1.5-1.5-1.439-2.957.069-1.636 1.53-3.294 3.328-3.394 1.306-.071 2.26.708 2.518.934.484 1.001.616 2.22.284 3.433Z"/><path fill="#fff" d="M15.318 16.67a5.402 5.402 0 0 1-.564 2.316c-.718 1.477-1.964 2.471-3.218 2.726a2.83 2.83 0 0 1-1.8-.195c-1.698-.808-2.205-3.249-1.128-5.454 1.073-2.206 3.32-3.337 5.018-2.531 1.105.526 1.704 1.744 1.692 3.139Z"/><path fill="#2F1D41" d="M15.318 16.672a5.402 5.402 0 0 1-.564 2.315c-.718 1.477-1.964 2.471-3.218 2.726-.896-.596-1.503-1.753-1.503-3.08 0-1.939 1.294-3.51 2.889-3.51.996 0 1.875.615 2.396 1.549Z"/><path fill="#DA567A" d="M12.04 23.065c-.407 1.082-2.307 1.383-4.243.673-1.936-.71-3.176-2.164-2.769-3.247.407-1.082 2.307-1.383 4.243-.673 1.937.71 3.176 2.165 2.77 3.247Zm13.499.172c.187 1.139-1.315 2.327-3.354 2.654-2.04.325-3.844-.334-4.03-1.475-.187-1.14 1.314-2.328 3.354-2.654 2.039-.326 3.843.334 4.03 1.475Z"/><path fill="#fff" d="M21.615 14.768c.52.602.811 1.365.823 2.156a2.67 2.67 0 0 1-2.29-.531c.05-.334.186-.65.393-.919a2.048 2.048 0 0 1 1.074-.706Zm-10.378.21c.52.602.811 1.365.823 2.156a2.652 2.652 0 0 1-2.29-.53c.05-.334.185-.65.393-.918a2.065 2.065 0 0 1 1.074-.708Z"/><path fill="#DA567A" d="M37.011 16.747c-.188 1.052-1.228 2.287-2.45 3.746a22.972 22.972 0 0 1-5.153 4.525 80.38 80.38 0 0 1 0 2.544c-.1 5.551-.15 8.328-1.243 9.142-1.772 1.324-6.582-1.34-11.737-5.938a68.436 68.436 0 0 0-4.868 3.865c-1.314 1.149-2.07 1.904-3.052 1.79-.603-.068-1.102-.44-1.5-.902 1.226-.472 3.207-1.17 5.589-2.915a21.891 21.891 0 0 0 3.865-3.628c7.206 6.583 9.931 7.33 11.022 6.598.664-.445.739-1.446.859-3.394a24.16 24.16 0 0 0-.908-8.2c2.517-1.165 5.686-3.052 8.589-6.126.35-.37.681-.74.987-1.107Z"/><path fill="#2F1D41" d="m26.195 17.242-.046-.131c-.03-.085-.073-.212-.14-.365a5.306 5.306 0 0 0-.68-1.183 4.5 4.5 0 0 0-1.415-1.231 3.864 3.864 0 0 0-.974-.372l-.245-.049-.289-.026a1.432 1.432 0 0 0-.271-.007c-.087.005-.17-.001-.26.01-.36.03-.713.107-1.052.23-.33.134-.657.276-.939.477a5.104 5.104 0 0 0-.771.627c-.112.112-.209.233-.312.343l-.264.347a6.214 6.214 0 0 0-.386.665c-.112.203-.168.397-.239.55l-.162.505.012-.139c.01-.09.014-.224.04-.394.041-.163.06-.376.145-.602.04-.112.073-.237.127-.362.055-.123.114-.254.18-.389l.237-.404c.096-.13.193-.268.303-.402.234-.282.502-.534.798-.751a4.421 4.421 0 0 1 1.033-.58 4.594 4.594 0 0 1 1.205-.285c.104-.01.216-.004.324-.006.103-.004.207 0 .31.014l.288.032.32.066c.389.1.76.26 1.098.475.316.192.602.428.851.7.225.236.42.498.581.78.14.232.256.478.347.733a4.107 4.107 0 0 1 .23.987c.01.09.017.137.017.137Zm-10.986.036.005-.14c.006-.09.008-.224.002-.388a2.55 2.55 0 0 0-.016-.274 4.355 4.355 0 0 0-.216-1.06 3.582 3.582 0 0 0-.382-.795 2.92 2.92 0 0 0-.644-.707 2.174 2.174 0 0 0-.422-.26l-.041-.02-.066-.026-.134-.049a2.119 2.119 0 0 0-.237-.066 2.456 2.456 0 0 0-1.032.001 4 4 0 0 0-1.024.339 7.481 7.481 0 0 0-.48.252c-.152.09-.3.187-.443.29a4.878 4.878 0 0 0-.718.667 5.96 5.96 0 0 0-.524.73 6.576 6.576 0 0 0-.565 1.246 5.58 5.58 0 0 0-.148.507c0-.178.012-.356.037-.532a5.06 5.06 0 0 1 .384-1.368c.13-.296.29-.578.478-.842.212-.277.44-.558.756-.807.3-.247.629-.46.978-.633a4.545 4.545 0 0 1 1.164-.404c.42-.082.853-.074 1.27.024.105.026.208.058.31.097l.13.056.064.028a2.64 2.64 0 0 1 .584.388c.285.247.52.546.692.88.155.29.266.6.33.921.056.265.083.536.08.807a3.46 3.46 0 0 1-.052.618c-.019.13-.047.26-.084.386l-.036.134Z"/></g><path fill="#302041" d="M27.165 30.023v-3.735h1.2c.8 0 1.441-.222 1.921-.666.498-.463.695-.98.695-1.728l.545-.086 3.27-.401v.214c0 1.28.096 2.4-.455 3.361-.552.96-1.343 1.707-2.374 2.24-1.014.534-2.214.801-3.601.801h-1.2Z"/></svg>